%FSLAX45Y45*%
G04 Gerber Fmt 4.5, Leading zero omitted, Abs format (unit mm)*
G04 Created by KiCad (PCBNEW 6.0.6-3a73a75311~116~ubuntu21.10.1) date 2022-12-30 19:04:23*
%MOMM*%
%LPD*%
G01*
G04 APERTURE LIST*
%TA.AperFunction,Profile*%
%ADD10C,0.100000*%
%TD*%
%ADD11C,0.200000*%
%ADD12C,0.040000*%
%ADD13C,0.090000*%
%ADD14C,0.100000*%
G04 APERTURE END LIST*
D10*
X7264400Y-2362200D02*
X11353800Y-2362200D01*
X11353800Y-2362200D02*
X11353800Y-7721600D01*
X11353800Y-7721600D02*
X7264400Y-7721600D01*
X7264400Y-7721600D02*
X7264400Y-2362200D01*
D11*
D12*
X8158800Y-6533200D02*
X8198800Y-6573200D01*
X8198800Y-6533200D02*
X8158800Y-6573200D01*
X8285800Y-4374200D02*
X8325800Y-4414200D01*
X8325800Y-4374200D02*
X8285800Y-4414200D01*
X8412800Y-3942400D02*
X8452800Y-3982400D01*
X8452800Y-3942400D02*
X8412800Y-3982400D01*
X8412800Y-6431600D02*
X8452800Y-6471600D01*
X8452800Y-6431600D02*
X8412800Y-6471600D01*
X8768400Y-4501200D02*
X8808400Y-4541200D01*
X8808400Y-4501200D02*
X8768400Y-4541200D01*
X8920800Y-4501200D02*
X8960800Y-4541200D01*
X8960800Y-4501200D02*
X8920800Y-4541200D01*
X9251000Y-3790000D02*
X9291000Y-3830000D01*
X9291000Y-3790000D02*
X9251000Y-3830000D01*
X9962200Y-5847400D02*
X10002200Y-5887400D01*
X10002200Y-5847400D02*
X9962200Y-5887400D01*
D13*
X10511200Y-3479800D02*
G75*
G03*
X10511200Y-3479800I-45000J0D01*
G01*
X10511200Y-3683800D02*
G75*
G03*
X10511200Y-3683800I-45000J0D01*
G01*
X10511200Y-3887800D02*
G75*
G03*
X10511200Y-3887800I-45000J0D01*
G01*
X10511200Y-5029200D02*
G75*
G03*
X10511200Y-5029200I-45000J0D01*
G01*
X10511200Y-5233200D02*
G75*
G03*
X10511200Y-5233200I-45000J0D01*
G01*
X10511200Y-5437200D02*
G75*
G03*
X10511200Y-5437200I-45000J0D01*
G01*
X10765200Y-3581800D02*
G75*
G03*
X10765200Y-3581800I-45000J0D01*
G01*
X10765200Y-3785800D02*
G75*
G03*
X10765200Y-3785800I-45000J0D01*
G01*
X10765200Y-3989800D02*
G75*
G03*
X10765200Y-3989800I-45000J0D01*
G01*
X10765200Y-5131200D02*
G75*
G03*
X10765200Y-5131200I-45000J0D01*
G01*
X10765200Y-5335200D02*
G75*
G03*
X10765200Y-5335200I-45000J0D01*
G01*
X10765200Y-5539200D02*
G75*
G03*
X10765200Y-5539200I-45000J0D01*
G01*
D14*
X7541500Y-3633000D02*
X7541500Y-3733000D01*
X7491500Y-3683000D02*
X7591500Y-3683000D01*
X7541500Y-3887000D02*
X7541500Y-3987000D01*
X7491500Y-3937000D02*
X7591500Y-3937000D01*
X7541500Y-4141000D02*
X7541500Y-4241000D01*
X7491500Y-4191000D02*
X7591500Y-4191000D01*
X7541500Y-4395000D02*
X7541500Y-4495000D01*
X7491500Y-4445000D02*
X7591500Y-4445000D01*
X7541500Y-4649000D02*
X7541500Y-4749000D01*
X7491500Y-4699000D02*
X7591500Y-4699000D01*
X7541500Y-4903000D02*
X7541500Y-5003000D01*
X7491500Y-4953000D02*
X7591500Y-4953000D01*
X7541500Y-5157000D02*
X7541500Y-5257000D01*
X7491500Y-5207000D02*
X7591500Y-5207000D01*
X7541500Y-5411000D02*
X7541500Y-5511000D01*
X7491500Y-5461000D02*
X7591500Y-5461000D01*
X9827500Y-3633000D02*
X9827500Y-3733000D01*
X9777500Y-3683000D02*
X9877500Y-3683000D01*
X9827500Y-3887000D02*
X9827500Y-3987000D01*
X9777500Y-3937000D02*
X9877500Y-3937000D01*
X9827500Y-4141000D02*
X9827500Y-4241000D01*
X9777500Y-4191000D02*
X9877500Y-4191000D01*
X9827500Y-4395000D02*
X9827500Y-4495000D01*
X9777500Y-4445000D02*
X9877500Y-4445000D01*
X9827500Y-4649000D02*
X9827500Y-4749000D01*
X9777500Y-4699000D02*
X9877500Y-4699000D01*
X9827500Y-4903000D02*
X9827500Y-5003000D01*
X9777500Y-4953000D02*
X9877500Y-4953000D01*
X9827500Y-5157000D02*
X9827500Y-5257000D01*
X9777500Y-5207000D02*
X9877500Y-5207000D01*
X9827500Y-5411000D02*
X9827500Y-5511000D01*
X9777500Y-5461000D02*
X9877500Y-5461000D01*
X10312400Y-6664800D02*
X10312400Y-6764800D01*
X10262400Y-6714800D02*
X10362400Y-6714800D01*
D11*
X10362400Y-6844800D02*
X10362400Y-6584800D01*
X10262400Y-6844800D02*
X10262400Y-6584800D01*
X10362400Y-6584800D02*
G75*
G03*
X10262400Y-6584800I-50000J0D01*
G01*
X10262400Y-6844800D02*
G75*
G03*
X10362400Y-6844800I50000J0D01*
G01*
D14*
X10602400Y-6184800D02*
X10602400Y-6284800D01*
X10552400Y-6234800D02*
X10652400Y-6234800D01*
D11*
X10712400Y-6184800D02*
X10492400Y-6184800D01*
X10712400Y-6284800D02*
X10492400Y-6284800D01*
X10492400Y-6184800D02*
G75*
G03*
X10492400Y-6284800I0J-50000D01*
G01*
X10712400Y-6284800D02*
G75*
G03*
X10712400Y-6184800I0J50000D01*
G01*
D14*
X10942400Y-6664800D02*
X10942400Y-6764800D01*
X10892400Y-6714800D02*
X10992400Y-6714800D01*
D11*
X10992400Y-6824800D02*
X10992400Y-6604800D01*
X10892400Y-6824800D02*
X10892400Y-6604800D01*
X10992400Y-6604800D02*
G75*
G03*
X10892400Y-6604800I-50000J0D01*
G01*
X10892400Y-6824800D02*
G75*
G03*
X10992400Y-6824800I50000J0D01*
G01*
X7517019Y-8037076D02*
X7517019Y-7837076D01*
X7564638Y-7837076D01*
X7593209Y-7846600D01*
X7612257Y-7865648D01*
X7621781Y-7884695D01*
X7631305Y-7922790D01*
X7631305Y-7951362D01*
X7621781Y-7989457D01*
X7612257Y-8008505D01*
X7593209Y-8027552D01*
X7564638Y-8037076D01*
X7517019Y-8037076D01*
X7717019Y-8037076D02*
X7717019Y-7903743D01*
X7717019Y-7941838D02*
X7726543Y-7922790D01*
X7736067Y-7913267D01*
X7755114Y-7903743D01*
X7774162Y-7903743D01*
X7840828Y-8037076D02*
X7840828Y-7903743D01*
X7840828Y-7837076D02*
X7831305Y-7846600D01*
X7840828Y-7856124D01*
X7850352Y-7846600D01*
X7840828Y-7837076D01*
X7840828Y-7856124D01*
X7964638Y-8037076D02*
X7945590Y-8027552D01*
X7936067Y-8008505D01*
X7936067Y-7837076D01*
X8069400Y-8037076D02*
X8050352Y-8027552D01*
X8040828Y-8008505D01*
X8040828Y-7837076D01*
X8297971Y-8037076D02*
X8297971Y-7837076D01*
X8364638Y-7979933D01*
X8431305Y-7837076D01*
X8431305Y-8037076D01*
X8612257Y-8037076D02*
X8612257Y-7932314D01*
X8602733Y-7913267D01*
X8583686Y-7903743D01*
X8545590Y-7903743D01*
X8526543Y-7913267D01*
X8612257Y-8027552D02*
X8593210Y-8037076D01*
X8545590Y-8037076D01*
X8526543Y-8027552D01*
X8517019Y-8008505D01*
X8517019Y-7989457D01*
X8526543Y-7970409D01*
X8545590Y-7960886D01*
X8593210Y-7960886D01*
X8612257Y-7951362D01*
X8707495Y-7903743D02*
X8707495Y-8103743D01*
X8707495Y-7913267D02*
X8726543Y-7903743D01*
X8764638Y-7903743D01*
X8783686Y-7913267D01*
X8793210Y-7922790D01*
X8802733Y-7941838D01*
X8802733Y-7998981D01*
X8793210Y-8018028D01*
X8783686Y-8027552D01*
X8764638Y-8037076D01*
X8726543Y-8037076D01*
X8707495Y-8027552D01*
X8888448Y-8018028D02*
X8897971Y-8027552D01*
X8888448Y-8037076D01*
X8878924Y-8027552D01*
X8888448Y-8018028D01*
X8888448Y-8037076D01*
X8888448Y-7913267D02*
X8897971Y-7922790D01*
X8888448Y-7932314D01*
X8878924Y-7922790D01*
X8888448Y-7913267D01*
X8888448Y-7932314D01*
D12*
X7219400Y-8346600D02*
X7259400Y-8386600D01*
X7259400Y-8346600D02*
X7219400Y-8386600D01*
D11*
X7555114Y-8257076D02*
X7574162Y-8257076D01*
X7593209Y-8266600D01*
X7602733Y-8276124D01*
X7612257Y-8295171D01*
X7621781Y-8333267D01*
X7621781Y-8380886D01*
X7612257Y-8418981D01*
X7602733Y-8438029D01*
X7593209Y-8447552D01*
X7574162Y-8457076D01*
X7555114Y-8457076D01*
X7536067Y-8447552D01*
X7526543Y-8438029D01*
X7517019Y-8418981D01*
X7507495Y-8380886D01*
X7507495Y-8333267D01*
X7517019Y-8295171D01*
X7526543Y-8276124D01*
X7536067Y-8266600D01*
X7555114Y-8257076D01*
X7707495Y-8438029D02*
X7717019Y-8447552D01*
X7707495Y-8457076D01*
X7697971Y-8447552D01*
X7707495Y-8438029D01*
X7707495Y-8457076D01*
X7888448Y-8323743D02*
X7888448Y-8457076D01*
X7840828Y-8247552D02*
X7793209Y-8390410D01*
X7917019Y-8390410D01*
X8031305Y-8257076D02*
X8050352Y-8257076D01*
X8069400Y-8266600D01*
X8078924Y-8276124D01*
X8088448Y-8295171D01*
X8097971Y-8333267D01*
X8097971Y-8380886D01*
X8088448Y-8418981D01*
X8078924Y-8438029D01*
X8069400Y-8447552D01*
X8050352Y-8457076D01*
X8031305Y-8457076D01*
X8012257Y-8447552D01*
X8002733Y-8438029D01*
X7993209Y-8418981D01*
X7983686Y-8380886D01*
X7983686Y-8333267D01*
X7993209Y-8295171D01*
X8002733Y-8276124D01*
X8012257Y-8266600D01*
X8031305Y-8257076D01*
X8221781Y-8257076D02*
X8240828Y-8257076D01*
X8259876Y-8266600D01*
X8269400Y-8276124D01*
X8278924Y-8295171D01*
X8288448Y-8333267D01*
X8288448Y-8380886D01*
X8278924Y-8418981D01*
X8269400Y-8438029D01*
X8259876Y-8447552D01*
X8240828Y-8457076D01*
X8221781Y-8457076D01*
X8202733Y-8447552D01*
X8193209Y-8438029D01*
X8183686Y-8418981D01*
X8174162Y-8380886D01*
X8174162Y-8333267D01*
X8183686Y-8295171D01*
X8193209Y-8276124D01*
X8202733Y-8266600D01*
X8221781Y-8257076D01*
X8374162Y-8457076D02*
X8374162Y-8323743D01*
X8374162Y-8342790D02*
X8383686Y-8333267D01*
X8402733Y-8323743D01*
X8431305Y-8323743D01*
X8450352Y-8333267D01*
X8459876Y-8352314D01*
X8459876Y-8457076D01*
X8459876Y-8352314D02*
X8469400Y-8333267D01*
X8488448Y-8323743D01*
X8517019Y-8323743D01*
X8536067Y-8333267D01*
X8545590Y-8352314D01*
X8545590Y-8457076D01*
X8640829Y-8457076D02*
X8640829Y-8323743D01*
X8640829Y-8342790D02*
X8650352Y-8333267D01*
X8669400Y-8323743D01*
X8697971Y-8323743D01*
X8717019Y-8333267D01*
X8726543Y-8352314D01*
X8726543Y-8457076D01*
X8726543Y-8352314D02*
X8736067Y-8333267D01*
X8755114Y-8323743D01*
X8783686Y-8323743D01*
X8802733Y-8333267D01*
X8812257Y-8352314D01*
X8812257Y-8457076D01*
X9202733Y-8247552D02*
X9031305Y-8504695D01*
X9459876Y-8257076D02*
X9478924Y-8257076D01*
X9497971Y-8266600D01*
X9507495Y-8276124D01*
X9517019Y-8295171D01*
X9526543Y-8333267D01*
X9526543Y-8380886D01*
X9517019Y-8418981D01*
X9507495Y-8438029D01*
X9497971Y-8447552D01*
X9478924Y-8457076D01*
X9459876Y-8457076D01*
X9440829Y-8447552D01*
X9431305Y-8438029D01*
X9421781Y-8418981D01*
X9412257Y-8380886D01*
X9412257Y-8333267D01*
X9421781Y-8295171D01*
X9431305Y-8276124D01*
X9440829Y-8266600D01*
X9459876Y-8257076D01*
X9612257Y-8438029D02*
X9621781Y-8447552D01*
X9612257Y-8457076D01*
X9602733Y-8447552D01*
X9612257Y-8438029D01*
X9612257Y-8457076D01*
X9745590Y-8257076D02*
X9764638Y-8257076D01*
X9783686Y-8266600D01*
X9793210Y-8276124D01*
X9802733Y-8295171D01*
X9812257Y-8333267D01*
X9812257Y-8380886D01*
X9802733Y-8418981D01*
X9793210Y-8438029D01*
X9783686Y-8447552D01*
X9764638Y-8457076D01*
X9745590Y-8457076D01*
X9726543Y-8447552D01*
X9717019Y-8438029D01*
X9707495Y-8418981D01*
X9697971Y-8380886D01*
X9697971Y-8333267D01*
X9707495Y-8295171D01*
X9717019Y-8276124D01*
X9726543Y-8266600D01*
X9745590Y-8257076D01*
X10002733Y-8457076D02*
X9888448Y-8457076D01*
X9945590Y-8457076D02*
X9945590Y-8257076D01*
X9926543Y-8285648D01*
X9907495Y-8304695D01*
X9888448Y-8314219D01*
X10183686Y-8257076D02*
X10088448Y-8257076D01*
X10078924Y-8352314D01*
X10088448Y-8342790D01*
X10107495Y-8333267D01*
X10155114Y-8333267D01*
X10174162Y-8342790D01*
X10183686Y-8352314D01*
X10193210Y-8371362D01*
X10193210Y-8418981D01*
X10183686Y-8438029D01*
X10174162Y-8447552D01*
X10155114Y-8457076D01*
X10107495Y-8457076D01*
X10088448Y-8447552D01*
X10078924Y-8438029D01*
X10259876Y-8257076D02*
X10393210Y-8257076D01*
X10307495Y-8457076D01*
X10459876Y-8257076D02*
X10459876Y-8295171D01*
X10536067Y-8257076D02*
X10536067Y-8295171D01*
X10831305Y-8533267D02*
X10821781Y-8523743D01*
X10802733Y-8495171D01*
X10793210Y-8476124D01*
X10783686Y-8447552D01*
X10774162Y-8399933D01*
X10774162Y-8361838D01*
X10783686Y-8314219D01*
X10793210Y-8285648D01*
X10802733Y-8266600D01*
X10821781Y-8238028D01*
X10831305Y-8228505D01*
X10936067Y-8342790D02*
X10917019Y-8333267D01*
X10907495Y-8323743D01*
X10897971Y-8304695D01*
X10897971Y-8295171D01*
X10907495Y-8276124D01*
X10917019Y-8266600D01*
X10936067Y-8257076D01*
X10974162Y-8257076D01*
X10993210Y-8266600D01*
X11002733Y-8276124D01*
X11012257Y-8295171D01*
X11012257Y-8304695D01*
X11002733Y-8323743D01*
X10993210Y-8333267D01*
X10974162Y-8342790D01*
X10936067Y-8342790D01*
X10917019Y-8352314D01*
X10907495Y-8361838D01*
X10897971Y-8380886D01*
X10897971Y-8418981D01*
X10907495Y-8438029D01*
X10917019Y-8447552D01*
X10936067Y-8457076D01*
X10974162Y-8457076D01*
X10993210Y-8447552D01*
X11002733Y-8438029D01*
X11012257Y-8418981D01*
X11012257Y-8380886D01*
X11002733Y-8361838D01*
X10993210Y-8352314D01*
X10974162Y-8342790D01*
X11250352Y-8457076D02*
X11250352Y-8257076D01*
X11336067Y-8457076D02*
X11336067Y-8352314D01*
X11326543Y-8333267D01*
X11307495Y-8323743D01*
X11278924Y-8323743D01*
X11259876Y-8333267D01*
X11250352Y-8342790D01*
X11459876Y-8457076D02*
X11440828Y-8447552D01*
X11431305Y-8438029D01*
X11421781Y-8418981D01*
X11421781Y-8361838D01*
X11431305Y-8342790D01*
X11440828Y-8333267D01*
X11459876Y-8323743D01*
X11488448Y-8323743D01*
X11507495Y-8333267D01*
X11517019Y-8342790D01*
X11526543Y-8361838D01*
X11526543Y-8418981D01*
X11517019Y-8438029D01*
X11507495Y-8447552D01*
X11488448Y-8457076D01*
X11459876Y-8457076D01*
X11640828Y-8457076D02*
X11621781Y-8447552D01*
X11612257Y-8428505D01*
X11612257Y-8257076D01*
X11793209Y-8447552D02*
X11774162Y-8457076D01*
X11736067Y-8457076D01*
X11717019Y-8447552D01*
X11707495Y-8428505D01*
X11707495Y-8352314D01*
X11717019Y-8333267D01*
X11736067Y-8323743D01*
X11774162Y-8323743D01*
X11793209Y-8333267D01*
X11802733Y-8352314D01*
X11802733Y-8371362D01*
X11707495Y-8390410D01*
X11878924Y-8447552D02*
X11897971Y-8457076D01*
X11936067Y-8457076D01*
X11955114Y-8447552D01*
X11964638Y-8428505D01*
X11964638Y-8418981D01*
X11955114Y-8399933D01*
X11936067Y-8390410D01*
X11907495Y-8390410D01*
X11888448Y-8380886D01*
X11878924Y-8361838D01*
X11878924Y-8352314D01*
X11888448Y-8333267D01*
X11907495Y-8323743D01*
X11936067Y-8323743D01*
X11955114Y-8333267D01*
X12031305Y-8533267D02*
X12040828Y-8523743D01*
X12059876Y-8495171D01*
X12069400Y-8476124D01*
X12078924Y-8447552D01*
X12088448Y-8399933D01*
X12088448Y-8361838D01*
X12078924Y-8314219D01*
X12069400Y-8285648D01*
X12059876Y-8266600D01*
X12040828Y-8238028D01*
X12031305Y-8228505D01*
D13*
X7259400Y-8630600D02*
G75*
G03*
X7259400Y-8630600I-45000J0D01*
G01*
D11*
X7555114Y-8521076D02*
X7574162Y-8521076D01*
X7593209Y-8530600D01*
X7602733Y-8540124D01*
X7612257Y-8559171D01*
X7621781Y-8597267D01*
X7621781Y-8644886D01*
X7612257Y-8682981D01*
X7602733Y-8702029D01*
X7593209Y-8711552D01*
X7574162Y-8721076D01*
X7555114Y-8721076D01*
X7536067Y-8711552D01*
X7526543Y-8702029D01*
X7517019Y-8682981D01*
X7507495Y-8644886D01*
X7507495Y-8597267D01*
X7517019Y-8559171D01*
X7526543Y-8540124D01*
X7536067Y-8530600D01*
X7555114Y-8521076D01*
X7707495Y-8702029D02*
X7717019Y-8711552D01*
X7707495Y-8721076D01*
X7697971Y-8711552D01*
X7707495Y-8702029D01*
X7707495Y-8721076D01*
X7812257Y-8721076D02*
X7850352Y-8721076D01*
X7869400Y-8711552D01*
X7878924Y-8702029D01*
X7897971Y-8673457D01*
X7907495Y-8635362D01*
X7907495Y-8559171D01*
X7897971Y-8540124D01*
X7888448Y-8530600D01*
X7869400Y-8521076D01*
X7831305Y-8521076D01*
X7812257Y-8530600D01*
X7802733Y-8540124D01*
X7793209Y-8559171D01*
X7793209Y-8606790D01*
X7802733Y-8625838D01*
X7812257Y-8635362D01*
X7831305Y-8644886D01*
X7869400Y-8644886D01*
X7888448Y-8635362D01*
X7897971Y-8625838D01*
X7907495Y-8606790D01*
X8031305Y-8521076D02*
X8050352Y-8521076D01*
X8069400Y-8530600D01*
X8078924Y-8540124D01*
X8088448Y-8559171D01*
X8097971Y-8597267D01*
X8097971Y-8644886D01*
X8088448Y-8682981D01*
X8078924Y-8702029D01*
X8069400Y-8711552D01*
X8050352Y-8721076D01*
X8031305Y-8721076D01*
X8012257Y-8711552D01*
X8002733Y-8702029D01*
X7993209Y-8682981D01*
X7983686Y-8644886D01*
X7983686Y-8597267D01*
X7993209Y-8559171D01*
X8002733Y-8540124D01*
X8012257Y-8530600D01*
X8031305Y-8521076D01*
X8221781Y-8521076D02*
X8240828Y-8521076D01*
X8259876Y-8530600D01*
X8269400Y-8540124D01*
X8278924Y-8559171D01*
X8288448Y-8597267D01*
X8288448Y-8644886D01*
X8278924Y-8682981D01*
X8269400Y-8702029D01*
X8259876Y-8711552D01*
X8240828Y-8721076D01*
X8221781Y-8721076D01*
X8202733Y-8711552D01*
X8193209Y-8702029D01*
X8183686Y-8682981D01*
X8174162Y-8644886D01*
X8174162Y-8597267D01*
X8183686Y-8559171D01*
X8193209Y-8540124D01*
X8202733Y-8530600D01*
X8221781Y-8521076D01*
X8374162Y-8721076D02*
X8374162Y-8587743D01*
X8374162Y-8606790D02*
X8383686Y-8597267D01*
X8402733Y-8587743D01*
X8431305Y-8587743D01*
X8450352Y-8597267D01*
X8459876Y-8616314D01*
X8459876Y-8721076D01*
X8459876Y-8616314D02*
X8469400Y-8597267D01*
X8488448Y-8587743D01*
X8517019Y-8587743D01*
X8536067Y-8597267D01*
X8545590Y-8616314D01*
X8545590Y-8721076D01*
X8640829Y-8721076D02*
X8640829Y-8587743D01*
X8640829Y-8606790D02*
X8650352Y-8597267D01*
X8669400Y-8587743D01*
X8697971Y-8587743D01*
X8717019Y-8597267D01*
X8726543Y-8616314D01*
X8726543Y-8721076D01*
X8726543Y-8616314D02*
X8736067Y-8597267D01*
X8755114Y-8587743D01*
X8783686Y-8587743D01*
X8802733Y-8597267D01*
X8812257Y-8616314D01*
X8812257Y-8721076D01*
X9202733Y-8511552D02*
X9031305Y-8768695D01*
X9459876Y-8521076D02*
X9478924Y-8521076D01*
X9497971Y-8530600D01*
X9507495Y-8540124D01*
X9517019Y-8559171D01*
X9526543Y-8597267D01*
X9526543Y-8644886D01*
X9517019Y-8682981D01*
X9507495Y-8702029D01*
X9497971Y-8711552D01*
X9478924Y-8721076D01*
X9459876Y-8721076D01*
X9440829Y-8711552D01*
X9431305Y-8702029D01*
X9421781Y-8682981D01*
X9412257Y-8644886D01*
X9412257Y-8597267D01*
X9421781Y-8559171D01*
X9431305Y-8540124D01*
X9440829Y-8530600D01*
X9459876Y-8521076D01*
X9612257Y-8702029D02*
X9621781Y-8711552D01*
X9612257Y-8721076D01*
X9602733Y-8711552D01*
X9612257Y-8702029D01*
X9612257Y-8721076D01*
X9745590Y-8521076D02*
X9764638Y-8521076D01*
X9783686Y-8530600D01*
X9793210Y-8540124D01*
X9802733Y-8559171D01*
X9812257Y-8597267D01*
X9812257Y-8644886D01*
X9802733Y-8682981D01*
X9793210Y-8702029D01*
X9783686Y-8711552D01*
X9764638Y-8721076D01*
X9745590Y-8721076D01*
X9726543Y-8711552D01*
X9717019Y-8702029D01*
X9707495Y-8682981D01*
X9697971Y-8644886D01*
X9697971Y-8597267D01*
X9707495Y-8559171D01*
X9717019Y-8540124D01*
X9726543Y-8530600D01*
X9745590Y-8521076D01*
X9878924Y-8521076D02*
X10002733Y-8521076D01*
X9936067Y-8597267D01*
X9964638Y-8597267D01*
X9983686Y-8606790D01*
X9993210Y-8616314D01*
X10002733Y-8635362D01*
X10002733Y-8682981D01*
X9993210Y-8702029D01*
X9983686Y-8711552D01*
X9964638Y-8721076D01*
X9907495Y-8721076D01*
X9888448Y-8711552D01*
X9878924Y-8702029D01*
X10183686Y-8521076D02*
X10088448Y-8521076D01*
X10078924Y-8616314D01*
X10088448Y-8606790D01*
X10107495Y-8597267D01*
X10155114Y-8597267D01*
X10174162Y-8606790D01*
X10183686Y-8616314D01*
X10193210Y-8635362D01*
X10193210Y-8682981D01*
X10183686Y-8702029D01*
X10174162Y-8711552D01*
X10155114Y-8721076D01*
X10107495Y-8721076D01*
X10088448Y-8711552D01*
X10078924Y-8702029D01*
X10364638Y-8587743D02*
X10364638Y-8721076D01*
X10317019Y-8511552D02*
X10269400Y-8654410D01*
X10393210Y-8654410D01*
X10459876Y-8521076D02*
X10459876Y-8559171D01*
X10536067Y-8521076D02*
X10536067Y-8559171D01*
X10831305Y-8797267D02*
X10821781Y-8787743D01*
X10802733Y-8759171D01*
X10793210Y-8740124D01*
X10783686Y-8711552D01*
X10774162Y-8663933D01*
X10774162Y-8625838D01*
X10783686Y-8578219D01*
X10793210Y-8549648D01*
X10802733Y-8530600D01*
X10821781Y-8502029D01*
X10831305Y-8492505D01*
X11012257Y-8721076D02*
X10897971Y-8721076D01*
X10955114Y-8721076D02*
X10955114Y-8521076D01*
X10936067Y-8549648D01*
X10917019Y-8568695D01*
X10897971Y-8578219D01*
X11088448Y-8540124D02*
X11097971Y-8530600D01*
X11117019Y-8521076D01*
X11164638Y-8521076D01*
X11183686Y-8530600D01*
X11193209Y-8540124D01*
X11202733Y-8559171D01*
X11202733Y-8578219D01*
X11193209Y-8606790D01*
X11078924Y-8721076D01*
X11202733Y-8721076D01*
X11440828Y-8721076D02*
X11440828Y-8521076D01*
X11526543Y-8721076D02*
X11526543Y-8616314D01*
X11517019Y-8597267D01*
X11497971Y-8587743D01*
X11469400Y-8587743D01*
X11450352Y-8597267D01*
X11440828Y-8606790D01*
X11650352Y-8721076D02*
X11631305Y-8711552D01*
X11621781Y-8702029D01*
X11612257Y-8682981D01*
X11612257Y-8625838D01*
X11621781Y-8606790D01*
X11631305Y-8597267D01*
X11650352Y-8587743D01*
X11678924Y-8587743D01*
X11697971Y-8597267D01*
X11707495Y-8606790D01*
X11717019Y-8625838D01*
X11717019Y-8682981D01*
X11707495Y-8702029D01*
X11697971Y-8711552D01*
X11678924Y-8721076D01*
X11650352Y-8721076D01*
X11831305Y-8721076D02*
X11812257Y-8711552D01*
X11802733Y-8692505D01*
X11802733Y-8521076D01*
X11983686Y-8711552D02*
X11964638Y-8721076D01*
X11926543Y-8721076D01*
X11907495Y-8711552D01*
X11897971Y-8692505D01*
X11897971Y-8616314D01*
X11907495Y-8597267D01*
X11926543Y-8587743D01*
X11964638Y-8587743D01*
X11983686Y-8597267D01*
X11993209Y-8616314D01*
X11993209Y-8635362D01*
X11897971Y-8654410D01*
X12069400Y-8711552D02*
X12088448Y-8721076D01*
X12126543Y-8721076D01*
X12145590Y-8711552D01*
X12155114Y-8692505D01*
X12155114Y-8682981D01*
X12145590Y-8663933D01*
X12126543Y-8654410D01*
X12097971Y-8654410D01*
X12078924Y-8644886D01*
X12069400Y-8625838D01*
X12069400Y-8616314D01*
X12078924Y-8597267D01*
X12097971Y-8587743D01*
X12126543Y-8587743D01*
X12145590Y-8597267D01*
X12221781Y-8797267D02*
X12231305Y-8787743D01*
X12250352Y-8759171D01*
X12259876Y-8740124D01*
X12269400Y-8711552D01*
X12278924Y-8663933D01*
X12278924Y-8625838D01*
X12269400Y-8578219D01*
X12259876Y-8549648D01*
X12250352Y-8530600D01*
X12231305Y-8502029D01*
X12221781Y-8492505D01*
D14*
X7209400Y-8844600D02*
X7209400Y-8944600D01*
X7159400Y-8894600D02*
X7259400Y-8894600D01*
D11*
X7621781Y-8985076D02*
X7507495Y-8985076D01*
X7564638Y-8985076D02*
X7564638Y-8785076D01*
X7545590Y-8813648D01*
X7526543Y-8832695D01*
X7507495Y-8842219D01*
X7707495Y-8966029D02*
X7717019Y-8975552D01*
X7707495Y-8985076D01*
X7697971Y-8975552D01*
X7707495Y-8966029D01*
X7707495Y-8985076D01*
X7840828Y-8785076D02*
X7859876Y-8785076D01*
X7878924Y-8794600D01*
X7888448Y-8804124D01*
X7897971Y-8823171D01*
X7907495Y-8861267D01*
X7907495Y-8908886D01*
X7897971Y-8946981D01*
X7888448Y-8966029D01*
X7878924Y-8975552D01*
X7859876Y-8985076D01*
X7840828Y-8985076D01*
X7821781Y-8975552D01*
X7812257Y-8966029D01*
X7802733Y-8946981D01*
X7793209Y-8908886D01*
X7793209Y-8861267D01*
X7802733Y-8823171D01*
X7812257Y-8804124D01*
X7821781Y-8794600D01*
X7840828Y-8785076D01*
X8031305Y-8785076D02*
X8050352Y-8785076D01*
X8069400Y-8794600D01*
X8078924Y-8804124D01*
X8088448Y-8823171D01*
X8097971Y-8861267D01*
X8097971Y-8908886D01*
X8088448Y-8946981D01*
X8078924Y-8966029D01*
X8069400Y-8975552D01*
X8050352Y-8985076D01*
X8031305Y-8985076D01*
X8012257Y-8975552D01*
X8002733Y-8966029D01*
X7993209Y-8946981D01*
X7983686Y-8908886D01*
X7983686Y-8861267D01*
X7993209Y-8823171D01*
X8002733Y-8804124D01*
X8012257Y-8794600D01*
X8031305Y-8785076D01*
X8221781Y-8785076D02*
X8240828Y-8785076D01*
X8259876Y-8794600D01*
X8269400Y-8804124D01*
X8278924Y-8823171D01*
X8288448Y-8861267D01*
X8288448Y-8908886D01*
X8278924Y-8946981D01*
X8269400Y-8966029D01*
X8259876Y-8975552D01*
X8240828Y-8985076D01*
X8221781Y-8985076D01*
X8202733Y-8975552D01*
X8193209Y-8966029D01*
X8183686Y-8946981D01*
X8174162Y-8908886D01*
X8174162Y-8861267D01*
X8183686Y-8823171D01*
X8193209Y-8804124D01*
X8202733Y-8794600D01*
X8221781Y-8785076D01*
X8374162Y-8985076D02*
X8374162Y-8851743D01*
X8374162Y-8870790D02*
X8383686Y-8861267D01*
X8402733Y-8851743D01*
X8431305Y-8851743D01*
X8450352Y-8861267D01*
X8459876Y-8880314D01*
X8459876Y-8985076D01*
X8459876Y-8880314D02*
X8469400Y-8861267D01*
X8488448Y-8851743D01*
X8517019Y-8851743D01*
X8536067Y-8861267D01*
X8545590Y-8880314D01*
X8545590Y-8985076D01*
X8640829Y-8985076D02*
X8640829Y-8851743D01*
X8640829Y-8870790D02*
X8650352Y-8861267D01*
X8669400Y-8851743D01*
X8697971Y-8851743D01*
X8717019Y-8861267D01*
X8726543Y-8880314D01*
X8726543Y-8985076D01*
X8726543Y-8880314D02*
X8736067Y-8861267D01*
X8755114Y-8851743D01*
X8783686Y-8851743D01*
X8802733Y-8861267D01*
X8812257Y-8880314D01*
X8812257Y-8985076D01*
X9202733Y-8775552D02*
X9031305Y-9032695D01*
X9459876Y-8785076D02*
X9478924Y-8785076D01*
X9497971Y-8794600D01*
X9507495Y-8804124D01*
X9517019Y-8823171D01*
X9526543Y-8861267D01*
X9526543Y-8908886D01*
X9517019Y-8946981D01*
X9507495Y-8966029D01*
X9497971Y-8975552D01*
X9478924Y-8985076D01*
X9459876Y-8985076D01*
X9440829Y-8975552D01*
X9431305Y-8966029D01*
X9421781Y-8946981D01*
X9412257Y-8908886D01*
X9412257Y-8861267D01*
X9421781Y-8823171D01*
X9431305Y-8804124D01*
X9440829Y-8794600D01*
X9459876Y-8785076D01*
X9612257Y-8966029D02*
X9621781Y-8975552D01*
X9612257Y-8985076D01*
X9602733Y-8975552D01*
X9612257Y-8966029D01*
X9612257Y-8985076D01*
X9745590Y-8785076D02*
X9764638Y-8785076D01*
X9783686Y-8794600D01*
X9793210Y-8804124D01*
X9802733Y-8823171D01*
X9812257Y-8861267D01*
X9812257Y-8908886D01*
X9802733Y-8946981D01*
X9793210Y-8966029D01*
X9783686Y-8975552D01*
X9764638Y-8985076D01*
X9745590Y-8985076D01*
X9726543Y-8975552D01*
X9717019Y-8966029D01*
X9707495Y-8946981D01*
X9697971Y-8908886D01*
X9697971Y-8861267D01*
X9707495Y-8823171D01*
X9717019Y-8804124D01*
X9726543Y-8794600D01*
X9745590Y-8785076D01*
X9878924Y-8785076D02*
X10002733Y-8785076D01*
X9936067Y-8861267D01*
X9964638Y-8861267D01*
X9983686Y-8870790D01*
X9993210Y-8880314D01*
X10002733Y-8899362D01*
X10002733Y-8946981D01*
X9993210Y-8966029D01*
X9983686Y-8975552D01*
X9964638Y-8985076D01*
X9907495Y-8985076D01*
X9888448Y-8975552D01*
X9878924Y-8966029D01*
X10097971Y-8985076D02*
X10136067Y-8985076D01*
X10155114Y-8975552D01*
X10164638Y-8966029D01*
X10183686Y-8937457D01*
X10193210Y-8899362D01*
X10193210Y-8823171D01*
X10183686Y-8804124D01*
X10174162Y-8794600D01*
X10155114Y-8785076D01*
X10117019Y-8785076D01*
X10097971Y-8794600D01*
X10088448Y-8804124D01*
X10078924Y-8823171D01*
X10078924Y-8870790D01*
X10088448Y-8889838D01*
X10097971Y-8899362D01*
X10117019Y-8908886D01*
X10155114Y-8908886D01*
X10174162Y-8899362D01*
X10183686Y-8889838D01*
X10193210Y-8870790D01*
X10364638Y-8851743D02*
X10364638Y-8985076D01*
X10317019Y-8775552D02*
X10269400Y-8918410D01*
X10393210Y-8918410D01*
X10459876Y-8785076D02*
X10459876Y-8823171D01*
X10536067Y-8785076D02*
X10536067Y-8823171D01*
X10831305Y-9061267D02*
X10821781Y-9051743D01*
X10802733Y-9023171D01*
X10793210Y-9004124D01*
X10783686Y-8975552D01*
X10774162Y-8927933D01*
X10774162Y-8889838D01*
X10783686Y-8842219D01*
X10793210Y-8813648D01*
X10802733Y-8794600D01*
X10821781Y-8766029D01*
X10831305Y-8756505D01*
X11012257Y-8985076D02*
X10897971Y-8985076D01*
X10955114Y-8985076D02*
X10955114Y-8785076D01*
X10936067Y-8813648D01*
X10917019Y-8832695D01*
X10897971Y-8842219D01*
X11183686Y-8785076D02*
X11145590Y-8785076D01*
X11126543Y-8794600D01*
X11117019Y-8804124D01*
X11097971Y-8832695D01*
X11088448Y-8870790D01*
X11088448Y-8946981D01*
X11097971Y-8966029D01*
X11107495Y-8975552D01*
X11126543Y-8985076D01*
X11164638Y-8985076D01*
X11183686Y-8975552D01*
X11193209Y-8966029D01*
X11202733Y-8946981D01*
X11202733Y-8899362D01*
X11193209Y-8880314D01*
X11183686Y-8870790D01*
X11164638Y-8861267D01*
X11126543Y-8861267D01*
X11107495Y-8870790D01*
X11097971Y-8880314D01*
X11088448Y-8899362D01*
X11440828Y-8985076D02*
X11440828Y-8785076D01*
X11526543Y-8985076D02*
X11526543Y-8880314D01*
X11517019Y-8861267D01*
X11497971Y-8851743D01*
X11469400Y-8851743D01*
X11450352Y-8861267D01*
X11440828Y-8870790D01*
X11650352Y-8985076D02*
X11631305Y-8975552D01*
X11621781Y-8966029D01*
X11612257Y-8946981D01*
X11612257Y-8889838D01*
X11621781Y-8870790D01*
X11631305Y-8861267D01*
X11650352Y-8851743D01*
X11678924Y-8851743D01*
X11697971Y-8861267D01*
X11707495Y-8870790D01*
X11717019Y-8889838D01*
X11717019Y-8946981D01*
X11707495Y-8966029D01*
X11697971Y-8975552D01*
X11678924Y-8985076D01*
X11650352Y-8985076D01*
X11831305Y-8985076D02*
X11812257Y-8975552D01*
X11802733Y-8956505D01*
X11802733Y-8785076D01*
X11983686Y-8975552D02*
X11964638Y-8985076D01*
X11926543Y-8985076D01*
X11907495Y-8975552D01*
X11897971Y-8956505D01*
X11897971Y-8880314D01*
X11907495Y-8861267D01*
X11926543Y-8851743D01*
X11964638Y-8851743D01*
X11983686Y-8861267D01*
X11993209Y-8880314D01*
X11993209Y-8899362D01*
X11897971Y-8918410D01*
X12069400Y-8975552D02*
X12088448Y-8985076D01*
X12126543Y-8985076D01*
X12145590Y-8975552D01*
X12155114Y-8956505D01*
X12155114Y-8946981D01*
X12145590Y-8927933D01*
X12126543Y-8918410D01*
X12097971Y-8918410D01*
X12078924Y-8908886D01*
X12069400Y-8889838D01*
X12069400Y-8880314D01*
X12078924Y-8861267D01*
X12097971Y-8851743D01*
X12126543Y-8851743D01*
X12145590Y-8861267D01*
X12393209Y-8908886D02*
X12545590Y-8908886D01*
X12469400Y-8985076D02*
X12469400Y-8832695D01*
X12774162Y-8785076D02*
X12897971Y-8785076D01*
X12831305Y-8861267D01*
X12859876Y-8861267D01*
X12878924Y-8870790D01*
X12888448Y-8880314D01*
X12897971Y-8899362D01*
X12897971Y-8946981D01*
X12888448Y-8966029D01*
X12878924Y-8975552D01*
X12859876Y-8985076D01*
X12802733Y-8985076D01*
X12783686Y-8975552D01*
X12774162Y-8966029D01*
X13126543Y-8975552D02*
X13145590Y-8985076D01*
X13183686Y-8985076D01*
X13202733Y-8975552D01*
X13212257Y-8956505D01*
X13212257Y-8946981D01*
X13202733Y-8927933D01*
X13183686Y-8918410D01*
X13155114Y-8918410D01*
X13136067Y-8908886D01*
X13126543Y-8889838D01*
X13126543Y-8880314D01*
X13136067Y-8861267D01*
X13155114Y-8851743D01*
X13183686Y-8851743D01*
X13202733Y-8861267D01*
X13326543Y-8985076D02*
X13307495Y-8975552D01*
X13297971Y-8956505D01*
X13297971Y-8785076D01*
X13431305Y-8985076D02*
X13412257Y-8975552D01*
X13402733Y-8966029D01*
X13393209Y-8946981D01*
X13393209Y-8889838D01*
X13402733Y-8870790D01*
X13412257Y-8861267D01*
X13431305Y-8851743D01*
X13459876Y-8851743D01*
X13478924Y-8861267D01*
X13488448Y-8870790D01*
X13497971Y-8889838D01*
X13497971Y-8946981D01*
X13488448Y-8966029D01*
X13478924Y-8975552D01*
X13459876Y-8985076D01*
X13431305Y-8985076D01*
X13555114Y-8851743D02*
X13631305Y-8851743D01*
X13583686Y-8785076D02*
X13583686Y-8956505D01*
X13593209Y-8975552D01*
X13612257Y-8985076D01*
X13631305Y-8985076D01*
X13688448Y-8975552D02*
X13707495Y-8985076D01*
X13745590Y-8985076D01*
X13764638Y-8975552D01*
X13774162Y-8956505D01*
X13774162Y-8946981D01*
X13764638Y-8927933D01*
X13745590Y-8918410D01*
X13717019Y-8918410D01*
X13697971Y-8908886D01*
X13688448Y-8889838D01*
X13688448Y-8880314D01*
X13697971Y-8861267D01*
X13717019Y-8851743D01*
X13745590Y-8851743D01*
X13764638Y-8861267D01*
X13840828Y-9061267D02*
X13850352Y-9051743D01*
X13869400Y-9023171D01*
X13878924Y-9004124D01*
X13888448Y-8975552D01*
X13897971Y-8927933D01*
X13897971Y-8889838D01*
X13888448Y-8842219D01*
X13878924Y-8813648D01*
X13869400Y-8794600D01*
X13850352Y-8766029D01*
X13840828Y-8756505D01*
M02*
