M48
; DRILL file {KiCad 6.0.6-3a73a75311~116~ubuntu21.10.1} date Fri 30 Dec 2022 19:02:35
; FORMAT={-:-/ absolute / metric / decimal}
; #@! TF.CreationDate,2022-12-30T19:02:35+10:00
; #@! TF.GenerationSoftware,Kicad,Pcbnew,6.0.6-3a73a75311~116~ubuntu21.10.1
; #@! TF.FileFunction,Plated,1,2,PTH
FMAT,2
METRIC
; #@! TA.AperFunction,Plated,PTH,ViaDrill
T1C0.400
; #@! TA.AperFunction,Plated,PTH,ComponentDrill
T2C0.900
; #@! TA.AperFunction,Plated,PTH,ComponentDrill
T3C1.000
%
G90
G05
T1
X81.788Y-65.532
X83.058Y-43.942
X84.328Y-39.624
X84.328Y-64.516
X87.884Y-45.212
X89.408Y-45.212
X92.71Y-38.1
X99.822Y-58.674
T2
X104.662Y-34.798
X104.662Y-36.838
X104.662Y-38.878
X104.662Y-50.292
X104.662Y-52.332
X104.662Y-54.372
X107.202Y-35.818
X107.202Y-37.858
X107.202Y-39.898
X107.202Y-51.312
X107.202Y-53.352
X107.202Y-55.392
T3
X75.415Y-36.83
X75.415Y-39.37
X75.415Y-41.91
X75.415Y-44.45
X75.415Y-46.99
X75.415Y-49.53
X75.415Y-52.07
X75.415Y-54.61
X98.275Y-36.83
X98.275Y-39.37
X98.275Y-41.91
X98.275Y-44.45
X98.275Y-46.99
X98.275Y-49.53
X98.275Y-52.07
X98.275Y-54.61
T3
X103.124Y-68.448G85X103.124Y-65.848
G05
X107.124Y-62.348G85X104.924Y-62.348
G05
X109.424Y-68.248G85X109.424Y-66.048
G05
T0
M30
