%TF.GenerationSoftware,KiCad,Pcbnew,6.0.6-3a73a75311~116~ubuntu21.10.1*%
%TF.CreationDate,2022-12-30T19:01:54+10:00*%
%TF.ProjectId,SkyEcho2FlarmHat,536b7945-6368-46f3-9246-6c61726d4861,rev?*%
%TF.SameCoordinates,Original*%
%TF.FileFunction,Legend,Bot*%
%TF.FilePolarity,Positive*%
%FSLAX46Y46*%
G04 Gerber Fmt 4.6, Leading zero omitted, Abs format (unit mm)*
G04 Created by KiCad (PCBNEW 6.0.6-3a73a75311~116~ubuntu21.10.1) date 2022-12-30 19:01:54*
%MOMM*%
%LPD*%
G01*
G04 APERTURE LIST*
%ADD10C,0.300000*%
%ADD11R,2.000000X4.600000*%
%ADD12O,2.000000X4.200000*%
%ADD13O,4.200000X2.000000*%
%ADD14C,1.700000*%
%ADD15C,2.360000*%
%ADD16R,2.000000X2.000000*%
%ADD17O,2.000000X1.600000*%
G04 APERTURE END LIST*
D10*
X96497857Y-29625642D02*
X96283571Y-29697071D01*
X95926428Y-29697071D01*
X95783571Y-29625642D01*
X95712142Y-29554214D01*
X95640714Y-29411357D01*
X95640714Y-29268500D01*
X95712142Y-29125642D01*
X95783571Y-29054214D01*
X95926428Y-28982785D01*
X96212142Y-28911357D01*
X96355000Y-28839928D01*
X96426428Y-28768500D01*
X96497857Y-28625642D01*
X96497857Y-28482785D01*
X96426428Y-28339928D01*
X96355000Y-28268500D01*
X96212142Y-28197071D01*
X95855000Y-28197071D01*
X95640714Y-28268500D01*
X94997857Y-29697071D02*
X94997857Y-28197071D01*
X94855000Y-29125642D02*
X94426428Y-29697071D01*
X94426428Y-28697071D02*
X94997857Y-29268500D01*
X93926428Y-28697071D02*
X93569285Y-29697071D01*
X93212142Y-28697071D02*
X93569285Y-29697071D01*
X93712142Y-30054214D01*
X93783571Y-30125642D01*
X93926428Y-30197071D01*
X92640714Y-28911357D02*
X92140714Y-28911357D01*
X91926428Y-29697071D02*
X92640714Y-29697071D01*
X92640714Y-28197071D01*
X91926428Y-28197071D01*
X90640714Y-29625642D02*
X90783571Y-29697071D01*
X91069285Y-29697071D01*
X91212142Y-29625642D01*
X91283571Y-29554214D01*
X91355000Y-29411357D01*
X91355000Y-28982785D01*
X91283571Y-28839928D01*
X91212142Y-28768500D01*
X91069285Y-28697071D01*
X90783571Y-28697071D01*
X90640714Y-28768500D01*
X89997857Y-29697071D02*
X89997857Y-28197071D01*
X89355000Y-29697071D02*
X89355000Y-28911357D01*
X89426428Y-28768500D01*
X89569285Y-28697071D01*
X89783571Y-28697071D01*
X89926428Y-28768500D01*
X89997857Y-28839928D01*
X88426428Y-29697071D02*
X88569285Y-29625642D01*
X88640714Y-29554214D01*
X88712142Y-29411357D01*
X88712142Y-28982785D01*
X88640714Y-28839928D01*
X88569285Y-28768500D01*
X88426428Y-28697071D01*
X88212142Y-28697071D01*
X88069285Y-28768500D01*
X87997857Y-28839928D01*
X87926428Y-28982785D01*
X87926428Y-29411357D01*
X87997857Y-29554214D01*
X88069285Y-29625642D01*
X88212142Y-29697071D01*
X88426428Y-29697071D01*
X87355000Y-28339928D02*
X87283571Y-28268500D01*
X87140714Y-28197071D01*
X86783571Y-28197071D01*
X86640714Y-28268500D01*
X86569285Y-28339928D01*
X86497857Y-28482785D01*
X86497857Y-28625642D01*
X86569285Y-28839928D01*
X87426428Y-29697071D01*
X86497857Y-29697071D01*
X85355000Y-28911357D02*
X85855000Y-28911357D01*
X85855000Y-29697071D02*
X85855000Y-28197071D01*
X85140714Y-28197071D01*
X84355000Y-29697071D02*
X84497857Y-29625642D01*
X84569285Y-29482785D01*
X84569285Y-28197071D01*
X83140714Y-29697071D02*
X83140714Y-28911357D01*
X83212142Y-28768500D01*
X83355000Y-28697071D01*
X83640714Y-28697071D01*
X83783571Y-28768500D01*
X83140714Y-29625642D02*
X83283571Y-29697071D01*
X83640714Y-29697071D01*
X83783571Y-29625642D01*
X83855000Y-29482785D01*
X83855000Y-29339928D01*
X83783571Y-29197071D01*
X83640714Y-29125642D01*
X83283571Y-29125642D01*
X83140714Y-29054214D01*
X82426428Y-29697071D02*
X82426428Y-28697071D01*
X82426428Y-28982785D02*
X82355000Y-28839928D01*
X82283571Y-28768500D01*
X82140714Y-28697071D01*
X81997857Y-28697071D01*
X81497857Y-29697071D02*
X81497857Y-28697071D01*
X81497857Y-28839928D02*
X81426428Y-28768500D01*
X81283571Y-28697071D01*
X81069285Y-28697071D01*
X80926428Y-28768500D01*
X80855000Y-28911357D01*
X80855000Y-29697071D01*
X80855000Y-28911357D02*
X80783571Y-28768500D01*
X80640714Y-28697071D01*
X80426428Y-28697071D01*
X80283571Y-28768500D01*
X80212142Y-28911357D01*
X80212142Y-29697071D01*
X78569285Y-28197071D02*
X78069285Y-29697071D01*
X77569285Y-28197071D01*
X76783571Y-28197071D02*
X76640714Y-28197071D01*
X76497857Y-28268500D01*
X76426428Y-28339928D01*
X76355000Y-28482785D01*
X76283571Y-28768500D01*
X76283571Y-29125642D01*
X76355000Y-29411357D01*
X76426428Y-29554214D01*
X76497857Y-29625642D01*
X76640714Y-29697071D01*
X76783571Y-29697071D01*
X76926428Y-29625642D01*
X76997857Y-29554214D01*
X77069285Y-29411357D01*
X77140714Y-29125642D01*
X77140714Y-28768500D01*
X77069285Y-28482785D01*
X76997857Y-28339928D01*
X76926428Y-28268500D01*
X76783571Y-28197071D01*
X75640714Y-29554214D02*
X75569285Y-29625642D01*
X75640714Y-29697071D01*
X75712142Y-29625642D01*
X75640714Y-29554214D01*
X75640714Y-29697071D01*
X74140714Y-29697071D02*
X74997857Y-29697071D01*
X74569285Y-29697071D02*
X74569285Y-28197071D01*
X74712142Y-28411357D01*
X74855000Y-28554214D01*
X74997857Y-28625642D01*
X88212142Y-32112071D02*
X88926428Y-32112071D01*
X88926428Y-30612071D01*
X87069285Y-32112071D02*
X87069285Y-31326357D01*
X87140714Y-31183500D01*
X87283571Y-31112071D01*
X87569285Y-31112071D01*
X87712142Y-31183500D01*
X87069285Y-32040642D02*
X87212142Y-32112071D01*
X87569285Y-32112071D01*
X87712142Y-32040642D01*
X87783571Y-31897785D01*
X87783571Y-31754928D01*
X87712142Y-31612071D01*
X87569285Y-31540642D01*
X87212142Y-31540642D01*
X87069285Y-31469214D01*
X85712142Y-32040642D02*
X85855000Y-32112071D01*
X86140714Y-32112071D01*
X86283571Y-32040642D01*
X86355000Y-31969214D01*
X86426428Y-31826357D01*
X86426428Y-31397785D01*
X86355000Y-31254928D01*
X86283571Y-31183500D01*
X86140714Y-31112071D01*
X85855000Y-31112071D01*
X85712142Y-31183500D01*
X85069285Y-32112071D02*
X85069285Y-30612071D01*
X84426428Y-32112071D02*
X84426428Y-31326357D01*
X84497857Y-31183500D01*
X84640714Y-31112071D01*
X84855000Y-31112071D01*
X84997857Y-31183500D01*
X85069285Y-31254928D01*
X83497857Y-32112071D02*
X83640714Y-32040642D01*
X83712142Y-31897785D01*
X83712142Y-30612071D01*
X82283571Y-32112071D02*
X82283571Y-31326357D01*
X82355000Y-31183500D01*
X82497857Y-31112071D01*
X82783571Y-31112071D01*
X82926428Y-31183500D01*
X82283571Y-32040642D02*
X82426428Y-32112071D01*
X82783571Y-32112071D01*
X82926428Y-32040642D01*
X82997857Y-31897785D01*
X82997857Y-31754928D01*
X82926428Y-31612071D01*
X82783571Y-31540642D01*
X82426428Y-31540642D01*
X82283571Y-31469214D01*
X81569285Y-31112071D02*
X81569285Y-32112071D01*
X81569285Y-31254928D02*
X81497857Y-31183500D01*
X81355000Y-31112071D01*
X81140714Y-31112071D01*
X80997857Y-31183500D01*
X80926428Y-31326357D01*
X80926428Y-32112071D01*
X79069285Y-32112071D02*
X79069285Y-30612071D01*
X78497857Y-30612071D01*
X78355000Y-30683500D01*
X78283571Y-30754928D01*
X78212142Y-30897785D01*
X78212142Y-31112071D01*
X78283571Y-31254928D01*
X78355000Y-31326357D01*
X78497857Y-31397785D01*
X79069285Y-31397785D01*
X77355000Y-32112071D02*
X77497857Y-32040642D01*
X77569285Y-31969214D01*
X77640714Y-31826357D01*
X77640714Y-31397785D01*
X77569285Y-31254928D01*
X77497857Y-31183500D01*
X77355000Y-31112071D01*
X77140714Y-31112071D01*
X76997857Y-31183500D01*
X76926428Y-31254928D01*
X76855000Y-31397785D01*
X76855000Y-31826357D01*
X76926428Y-31969214D01*
X76997857Y-32040642D01*
X77140714Y-32112071D01*
X77355000Y-32112071D01*
X76212142Y-31112071D02*
X76212142Y-32112071D01*
X76212142Y-31254928D02*
X76140714Y-31183500D01*
X75997857Y-31112071D01*
X75783571Y-31112071D01*
X75640714Y-31183500D01*
X75569285Y-31326357D01*
X75569285Y-32112071D01*
X74212142Y-32112071D02*
X74212142Y-30612071D01*
X74212142Y-32040642D02*
X74355000Y-32112071D01*
X74640714Y-32112071D01*
X74783571Y-32040642D01*
X74855000Y-31969214D01*
X74926428Y-31826357D01*
X74926428Y-31397785D01*
X74855000Y-31254928D01*
X74783571Y-31183500D01*
X74640714Y-31112071D01*
X74355000Y-31112071D01*
X74212142Y-31183500D01*
X112438571Y-66127428D02*
X112438571Y-65270285D01*
X112438571Y-65698857D02*
X110938571Y-65698857D01*
X111152857Y-65556000D01*
X111295714Y-65413142D01*
X111367142Y-65270285D01*
X111081428Y-66698857D02*
X111010000Y-66770285D01*
X110938571Y-66913142D01*
X110938571Y-67270285D01*
X111010000Y-67413142D01*
X111081428Y-67484571D01*
X111224285Y-67556000D01*
X111367142Y-67556000D01*
X111581428Y-67484571D01*
X112438571Y-66627428D01*
X112438571Y-67556000D01*
X110938571Y-67984571D02*
X112438571Y-68484571D01*
X110938571Y-68984571D01*
X110660571Y-33230857D02*
X109160571Y-33230857D01*
X109160571Y-33588000D01*
X109232000Y-33802285D01*
X109374857Y-33945142D01*
X109517714Y-34016571D01*
X109803428Y-34088000D01*
X110017714Y-34088000D01*
X110303428Y-34016571D01*
X110446285Y-33945142D01*
X110589142Y-33802285D01*
X110660571Y-33588000D01*
X110660571Y-33230857D01*
X110660571Y-34730857D02*
X109160571Y-34730857D01*
X110589142Y-35373714D02*
X110660571Y-35588000D01*
X110660571Y-35945142D01*
X110589142Y-36088000D01*
X110517714Y-36159428D01*
X110374857Y-36230857D01*
X110232000Y-36230857D01*
X110089142Y-36159428D01*
X110017714Y-36088000D01*
X109946285Y-35945142D01*
X109874857Y-35659428D01*
X109803428Y-35516571D01*
X109732000Y-35445142D01*
X109589142Y-35373714D01*
X109446285Y-35373714D01*
X109303428Y-35445142D01*
X109232000Y-35516571D01*
X109160571Y-35659428D01*
X109160571Y-36016571D01*
X109232000Y-36230857D01*
X110660571Y-36873714D02*
X109160571Y-36873714D01*
X109160571Y-37445142D01*
X109232000Y-37588000D01*
X109303428Y-37659428D01*
X109446285Y-37730857D01*
X109660571Y-37730857D01*
X109803428Y-37659428D01*
X109874857Y-37588000D01*
X109946285Y-37445142D01*
X109946285Y-36873714D01*
X110660571Y-39088000D02*
X110660571Y-38373714D01*
X109160571Y-38373714D01*
X110232000Y-39516571D02*
X110232000Y-40230857D01*
X110660571Y-39373714D02*
X109160571Y-39873714D01*
X110660571Y-40373714D01*
X109946285Y-41159428D02*
X110660571Y-41159428D01*
X109160571Y-40659428D02*
X109946285Y-41159428D01*
X109160571Y-41659428D01*
X109874857Y-50189142D02*
X109874857Y-49689142D01*
X110660571Y-49689142D02*
X109160571Y-49689142D01*
X109160571Y-50403428D01*
X110660571Y-51689142D02*
X110660571Y-50974857D01*
X109160571Y-50974857D01*
X110232000Y-52117714D02*
X110232000Y-52832000D01*
X110660571Y-51974857D02*
X109160571Y-52474857D01*
X110660571Y-52974857D01*
X110660571Y-54332000D02*
X109946285Y-53832000D01*
X110660571Y-53474857D02*
X109160571Y-53474857D01*
X109160571Y-54046285D01*
X109232000Y-54189142D01*
X109303428Y-54260571D01*
X109446285Y-54332000D01*
X109660571Y-54332000D01*
X109803428Y-54260571D01*
X109874857Y-54189142D01*
X109946285Y-54046285D01*
X109946285Y-53474857D01*
X110660571Y-54974857D02*
X109160571Y-54974857D01*
X110232000Y-55474857D01*
X109160571Y-55974857D01*
X110660571Y-55974857D01*
%LPC*%
D11*
%TO.C,J1*%
X103124000Y-67148000D03*
D12*
X109424000Y-67148000D03*
D13*
X106024000Y-62348000D03*
%TD*%
D14*
%TO.C,J3*%
X107202000Y-55392000D03*
X104662000Y-54372000D03*
X107202000Y-53352000D03*
X104662000Y-52332000D03*
X107202000Y-51312000D03*
X104662000Y-50292000D03*
D15*
X109492000Y-46842000D03*
X109492000Y-58842000D03*
%TD*%
%TO.C,J2*%
X109492000Y-43348000D03*
X109492000Y-31348000D03*
D14*
X104662000Y-34798000D03*
X107202000Y-35818000D03*
X104662000Y-36838000D03*
X107202000Y-37858000D03*
X104662000Y-38878000D03*
X107202000Y-39898000D03*
%TD*%
D16*
%TO.C,U3*%
X75415000Y-36830000D03*
D17*
X75415000Y-39370000D03*
X75415000Y-41910000D03*
X75415000Y-44450000D03*
X75415000Y-46990000D03*
X75415000Y-49530000D03*
X75415000Y-52070000D03*
X75415000Y-54610000D03*
X98275000Y-54610000D03*
X98275000Y-52070000D03*
X98275000Y-49530000D03*
X98275000Y-46990000D03*
X98275000Y-44450000D03*
X98275000Y-41910000D03*
X98275000Y-39370000D03*
X98275000Y-36830000D03*
%TD*%
M02*
