%TF.GenerationSoftware,KiCad,Pcbnew,6.0.6-3a73a75311~116~ubuntu21.10.1*%
%TF.CreationDate,2022-12-30T19:01:54+10:00*%
%TF.ProjectId,SkyEcho2FlarmHat,536b7945-6368-46f3-9246-6c61726d4861,rev?*%
%TF.SameCoordinates,Original*%
%TF.FileFunction,Paste,Top*%
%TF.FilePolarity,Positive*%
%FSLAX46Y46*%
G04 Gerber Fmt 4.6, Leading zero omitted, Abs format (unit mm)*
G04 Created by KiCad (PCBNEW 6.0.6-3a73a75311~116~ubuntu21.10.1) date 2022-12-30 19:01:54*
%MOMM*%
%LPD*%
G01*
G04 APERTURE LIST*
G04 Aperture macros list*
%AMRoundRect*
0 Rectangle with rounded corners*
0 $1 Rounding radius*
0 $2 $3 $4 $5 $6 $7 $8 $9 X,Y pos of 4 corners*
0 Add a 4 corners polygon primitive as box body*
4,1,4,$2,$3,$4,$5,$6,$7,$8,$9,$2,$3,0*
0 Add four circle primitives for the rounded corners*
1,1,$1+$1,$2,$3*
1,1,$1+$1,$4,$5*
1,1,$1+$1,$6,$7*
1,1,$1+$1,$8,$9*
0 Add four rect primitives between the rounded corners*
20,1,$1+$1,$2,$3,$4,$5,0*
20,1,$1+$1,$4,$5,$6,$7,0*
20,1,$1+$1,$6,$7,$8,$9,0*
20,1,$1+$1,$8,$9,$2,$3,0*%
G04 Aperture macros list end*
%ADD10RoundRect,0.140000X-0.170000X0.140000X-0.170000X-0.140000X0.170000X-0.140000X0.170000X0.140000X0*%
%ADD11RoundRect,0.140000X-0.140000X-0.170000X0.140000X-0.170000X0.140000X0.170000X-0.140000X0.170000X0*%
%ADD12RoundRect,0.135000X0.185000X-0.135000X0.185000X0.135000X-0.185000X0.135000X-0.185000X-0.135000X0*%
%ADD13RoundRect,0.140000X0.170000X-0.140000X0.170000X0.140000X-0.170000X0.140000X-0.170000X-0.140000X0*%
%ADD14RoundRect,0.100000X0.100000X-0.637500X0.100000X0.637500X-0.100000X0.637500X-0.100000X-0.637500X0*%
%ADD15RoundRect,0.243750X-0.243750X-0.456250X0.243750X-0.456250X0.243750X0.456250X-0.243750X0.456250X0*%
%ADD16R,2.750000X3.050000*%
%ADD17R,1.200000X2.200000*%
G04 APERTURE END LIST*
D10*
%TO.C,C5*%
X86614000Y-61291000D03*
X86614000Y-62251000D03*
%TD*%
%TO.C,C4*%
X99314000Y-60452000D03*
X99314000Y-61412000D03*
%TD*%
D11*
%TO.C,C3*%
X87912000Y-50292000D03*
X88872000Y-50292000D03*
%TD*%
D12*
%TO.C,R2*%
X81280000Y-63502000D03*
X81280000Y-62482000D03*
%TD*%
D13*
%TO.C,C6*%
X76708000Y-63444000D03*
X76708000Y-62484000D03*
%TD*%
D14*
%TO.C,U2*%
X85327000Y-48328500D03*
X85977000Y-48328500D03*
X86627000Y-48328500D03*
X87277000Y-48328500D03*
X87927000Y-48328500D03*
X88577000Y-48328500D03*
X89227000Y-48328500D03*
X89877000Y-48328500D03*
X89877000Y-42603500D03*
X89227000Y-42603500D03*
X88577000Y-42603500D03*
X87927000Y-42603500D03*
X87277000Y-42603500D03*
X86627000Y-42603500D03*
X85977000Y-42603500D03*
X85327000Y-42603500D03*
%TD*%
D11*
%TO.C,C2*%
X85852000Y-50292000D03*
X86812000Y-50292000D03*
%TD*%
D13*
%TO.C,C8*%
X89888000Y-51252000D03*
X89888000Y-50292000D03*
%TD*%
D11*
%TO.C,C9*%
X75085000Y-58420000D03*
X76045000Y-58420000D03*
%TD*%
D15*
%TO.C,D3*%
X84485000Y-68072000D03*
X86360000Y-68072000D03*
%TD*%
D11*
%TO.C,C1*%
X85372000Y-40640000D03*
X86332000Y-40640000D03*
%TD*%
D15*
%TO.C,D2*%
X80675000Y-68072000D03*
X82550000Y-68072000D03*
%TD*%
%TO.C,D1*%
X74325000Y-68072000D03*
X76200000Y-68072000D03*
%TD*%
D10*
%TO.C,C7*%
X83792000Y-46792000D03*
X83792000Y-47752000D03*
%TD*%
D12*
%TO.C,R1*%
X79248000Y-63502000D03*
X79248000Y-62482000D03*
%TD*%
D11*
%TO.C,C10*%
X75085000Y-57150000D03*
X76045000Y-57150000D03*
%TD*%
D16*
%TO.C,U1*%
X94489000Y-64941000D03*
X91439000Y-68291000D03*
X91439000Y-64941000D03*
X94489000Y-68291000D03*
D17*
X95244000Y-60316000D03*
X92964000Y-60316000D03*
X90684000Y-60316000D03*
%TD*%
M02*
