%TF.GenerationSoftware,KiCad,Pcbnew,6.0.6-3a73a75311~116~ubuntu21.10.1*%
%TF.CreationDate,2022-12-30T19:01:53+10:00*%
%TF.ProjectId,SkyEcho2FlarmHat,536b7945-6368-46f3-9246-6c61726d4861,rev?*%
%TF.SameCoordinates,Original*%
%TF.FileFunction,Copper,L1,Top*%
%TF.FilePolarity,Positive*%
%FSLAX46Y46*%
G04 Gerber Fmt 4.6, Leading zero omitted, Abs format (unit mm)*
G04 Created by KiCad (PCBNEW 6.0.6-3a73a75311~116~ubuntu21.10.1) date 2022-12-30 19:01:53*
%MOMM*%
%LPD*%
G01*
G04 APERTURE LIST*
G04 Aperture macros list*
%AMRoundRect*
0 Rectangle with rounded corners*
0 $1 Rounding radius*
0 $2 $3 $4 $5 $6 $7 $8 $9 X,Y pos of 4 corners*
0 Add a 4 corners polygon primitive as box body*
4,1,4,$2,$3,$4,$5,$6,$7,$8,$9,$2,$3,0*
0 Add four circle primitives for the rounded corners*
1,1,$1+$1,$2,$3*
1,1,$1+$1,$4,$5*
1,1,$1+$1,$6,$7*
1,1,$1+$1,$8,$9*
0 Add four rect primitives between the rounded corners*
20,1,$1+$1,$2,$3,$4,$5,0*
20,1,$1+$1,$4,$5,$6,$7,0*
20,1,$1+$1,$6,$7,$8,$9,0*
20,1,$1+$1,$8,$9,$2,$3,0*%
G04 Aperture macros list end*
%TA.AperFunction,ComponentPad*%
%ADD10R,2.000000X4.600000*%
%TD*%
%TA.AperFunction,ComponentPad*%
%ADD11O,2.000000X4.200000*%
%TD*%
%TA.AperFunction,ComponentPad*%
%ADD12O,4.200000X2.000000*%
%TD*%
%TA.AperFunction,SMDPad,CuDef*%
%ADD13RoundRect,0.140000X-0.170000X0.140000X-0.170000X-0.140000X0.170000X-0.140000X0.170000X0.140000X0*%
%TD*%
%TA.AperFunction,ComponentPad*%
%ADD14C,1.700000*%
%TD*%
%TA.AperFunction,SMDPad,CuDef*%
%ADD15RoundRect,0.140000X-0.140000X-0.170000X0.140000X-0.170000X0.140000X0.170000X-0.140000X0.170000X0*%
%TD*%
%TA.AperFunction,SMDPad,CuDef*%
%ADD16RoundRect,0.135000X0.185000X-0.135000X0.185000X0.135000X-0.185000X0.135000X-0.185000X-0.135000X0*%
%TD*%
%TA.AperFunction,SMDPad,CuDef*%
%ADD17RoundRect,0.140000X0.170000X-0.140000X0.170000X0.140000X-0.170000X0.140000X-0.170000X-0.140000X0*%
%TD*%
%TA.AperFunction,SMDPad,CuDef*%
%ADD18RoundRect,0.100000X0.100000X-0.637500X0.100000X0.637500X-0.100000X0.637500X-0.100000X-0.637500X0*%
%TD*%
%TA.AperFunction,ComponentPad*%
%ADD19R,2.000000X2.000000*%
%TD*%
%TA.AperFunction,ComponentPad*%
%ADD20O,2.000000X1.600000*%
%TD*%
%TA.AperFunction,SMDPad,CuDef*%
%ADD21RoundRect,0.243750X-0.243750X-0.456250X0.243750X-0.456250X0.243750X0.456250X-0.243750X0.456250X0*%
%TD*%
%TA.AperFunction,SMDPad,CuDef*%
%ADD22R,1.200000X2.200000*%
%TD*%
%TA.AperFunction,SMDPad,CuDef*%
%ADD23R,5.800000X6.400000*%
%TD*%
%TA.AperFunction,ViaPad*%
%ADD24C,0.800000*%
%TD*%
%TA.AperFunction,Conductor*%
%ADD25C,0.508000*%
%TD*%
%TA.AperFunction,Conductor*%
%ADD26C,0.812800*%
%TD*%
%TA.AperFunction,Conductor*%
%ADD27C,0.254000*%
%TD*%
%TA.AperFunction,Conductor*%
%ADD28C,0.250000*%
%TD*%
%TA.AperFunction,Conductor*%
%ADD29C,0.381000*%
%TD*%
G04 APERTURE END LIST*
D10*
%TO.P,J1,1*%
%TO.N,+BATT*%
X103124000Y-67148000D03*
D11*
%TO.P,J1,2*%
%TO.N,GND*%
X109424000Y-67148000D03*
D12*
%TO.P,J1,3*%
%TO.N,N/C*%
X106024000Y-62348000D03*
%TD*%
D13*
%TO.P,C5,1*%
%TO.N,+3.3V*%
X86614000Y-61291000D03*
%TO.P,C5,2*%
%TO.N,GND*%
X86614000Y-62251000D03*
%TD*%
%TO.P,C4,1*%
%TO.N,+BATT*%
X99314000Y-60452000D03*
%TO.P,C4,2*%
%TO.N,GND*%
X99314000Y-61412000D03*
%TD*%
D14*
%TO.P,J3,6*%
%TO.N,+BATT*%
X107202000Y-55392000D03*
%TO.P,J3,5*%
%TO.N,unconnected-(J3-Pad5)*%
X104662000Y-54372000D03*
%TO.P,J3,4*%
%TO.N,unconnected-(J3-Pad4)*%
X107202000Y-53352000D03*
%TO.P,J3,3*%
%TO.N,unconnected-(J3-Pad3)*%
X104662000Y-52332000D03*
%TO.P,J3,2*%
%TO.N,FLARM_RS232_RX*%
X107202000Y-51312000D03*
%TO.P,J3,1*%
%TO.N,GND*%
X104662000Y-50292000D03*
%TD*%
%TO.P,J2,1*%
%TO.N,GND*%
X104662000Y-34798000D03*
%TO.P,J2,2*%
%TO.N,unconnected-(J2-Pad2)*%
X107202000Y-35818000D03*
%TO.P,J2,3*%
%TO.N,DISP_RS232_TX*%
X104662000Y-36838000D03*
%TO.P,J2,4*%
%TO.N,unconnected-(J2-Pad4)*%
X107202000Y-37858000D03*
%TO.P,J2,5*%
%TO.N,unconnected-(J2-Pad5)*%
X104662000Y-38878000D03*
%TO.P,J2,6*%
%TO.N,+BATT*%
X107202000Y-39898000D03*
%TD*%
D15*
%TO.P,C3,1*%
%TO.N,Net-(C3-Pad1)*%
X87912000Y-50292000D03*
%TO.P,C3,2*%
%TO.N,Net-(C3-Pad2)*%
X88872000Y-50292000D03*
%TD*%
D16*
%TO.P,R2,1*%
%TO.N,Net-(D3-Pad1)*%
X81280000Y-63502000D03*
%TO.P,R2,2*%
%TO.N,GND*%
X81280000Y-62482000D03*
%TD*%
D17*
%TO.P,C6,1*%
%TO.N,+3.3V*%
X76708000Y-63444000D03*
%TO.P,C6,2*%
%TO.N,GND*%
X76708000Y-62484000D03*
%TD*%
D18*
%TO.P,U2,1,~{EN}*%
%TO.N,GND*%
X85327000Y-48328500D03*
%TO.P,U2,2,C1+*%
%TO.N,Net-(C2-Pad1)*%
X85977000Y-48328500D03*
%TO.P,U2,3,V+*%
%TO.N,Net-(C7-Pad1)*%
X86627000Y-48328500D03*
%TO.P,U2,4,C1-*%
%TO.N,Net-(C2-Pad2)*%
X87277000Y-48328500D03*
%TO.P,U2,5,C2+*%
%TO.N,Net-(C3-Pad1)*%
X87927000Y-48328500D03*
%TO.P,U2,6,C2-*%
%TO.N,Net-(C3-Pad2)*%
X88577000Y-48328500D03*
%TO.P,U2,7,V-*%
%TO.N,Net-(C8-Pad2)*%
X89227000Y-48328500D03*
%TO.P,U2,8,RIN*%
%TO.N,FLARM_RS232_RX*%
X89877000Y-48328500D03*
%TO.P,U2,9,ROUT*%
%TO.N,FLARM_TTL_RX*%
X89877000Y-42603500D03*
%TO.P,U2,10,~{INVALID}*%
%TO.N,unconnected-(U2-Pad10)*%
X89227000Y-42603500D03*
%TO.P,U2,11,DIN*%
%TO.N,DISP_TTL_TX*%
X88577000Y-42603500D03*
%TO.P,U2,12,FORCEON*%
%TO.N,+3.3V*%
X87927000Y-42603500D03*
%TO.P,U2,13,DOUT*%
%TO.N,DISP_RS232_TX*%
X87277000Y-42603500D03*
%TO.P,U2,14,GND*%
%TO.N,GND*%
X86627000Y-42603500D03*
%TO.P,U2,15,VCC*%
%TO.N,+3.3V*%
X85977000Y-42603500D03*
%TO.P,U2,16,~{FORCEOFF}*%
X85327000Y-42603500D03*
%TD*%
D15*
%TO.P,C2,1*%
%TO.N,Net-(C2-Pad1)*%
X85852000Y-50292000D03*
%TO.P,C2,2*%
%TO.N,Net-(C2-Pad2)*%
X86812000Y-50292000D03*
%TD*%
D17*
%TO.P,C8,1*%
%TO.N,GND*%
X89888000Y-51252000D03*
%TO.P,C8,2*%
%TO.N,Net-(C8-Pad2)*%
X89888000Y-50292000D03*
%TD*%
D19*
%TO.P,U3,1,~{RST}*%
%TO.N,unconnected-(U3-Pad1)*%
X75415000Y-36830000D03*
D20*
%TO.P,U3,2,A0*%
%TO.N,unconnected-(U3-Pad2)*%
X75415000Y-39370000D03*
%TO.P,U3,3,D0*%
%TO.N,unconnected-(U3-Pad3)*%
X75415000Y-41910000D03*
%TO.P,U3,4,SCK/D5*%
%TO.N,unconnected-(U3-Pad4)*%
X75415000Y-44450000D03*
%TO.P,U3,5,MISO/D6*%
%TO.N,unconnected-(U3-Pad5)*%
X75415000Y-46990000D03*
%TO.P,U3,6,MOSI/D7*%
%TO.N,unconnected-(U3-Pad6)*%
X75415000Y-49530000D03*
%TO.P,U3,7,CS/D8*%
%TO.N,unconnected-(U3-Pad7)*%
X75415000Y-52070000D03*
%TO.P,U3,8,3V3*%
%TO.N,+3.3V*%
X75415000Y-54610000D03*
%TO.P,U3,9,5V*%
%TO.N,unconnected-(U3-Pad9)*%
X98275000Y-54610000D03*
%TO.P,U3,10,GND*%
%TO.N,GND*%
X98275000Y-52070000D03*
%TO.P,U3,11,D4*%
%TO.N,unconnected-(U3-Pad11)*%
X98275000Y-49530000D03*
%TO.P,U3,12,D3*%
%TO.N,unconnected-(U3-Pad12)*%
X98275000Y-46990000D03*
%TO.P,U3,13,SDA/D2*%
%TO.N,unconnected-(U3-Pad13)*%
X98275000Y-44450000D03*
%TO.P,U3,14,SCL/D1*%
%TO.N,unconnected-(U3-Pad14)*%
X98275000Y-41910000D03*
%TO.P,U3,15,RX*%
%TO.N,FLARM_TTL_RX*%
X98275000Y-39370000D03*
%TO.P,U3,16,TX*%
%TO.N,DISP_TTL_TX*%
X98275000Y-36830000D03*
%TD*%
D15*
%TO.P,C9,1*%
%TO.N,+3.3V*%
X75085000Y-58420000D03*
%TO.P,C9,2*%
%TO.N,GND*%
X76045000Y-58420000D03*
%TD*%
D21*
%TO.P,D3,1,K*%
%TO.N,Net-(D3-Pad1)*%
X84485000Y-68072000D03*
%TO.P,D3,2,A*%
%TO.N,FLARM_TTL_RX*%
X86360000Y-68072000D03*
%TD*%
D15*
%TO.P,C1,1*%
%TO.N,+3.3V*%
X85372000Y-40640000D03*
%TO.P,C1,2*%
%TO.N,GND*%
X86332000Y-40640000D03*
%TD*%
D21*
%TO.P,D2,1,K*%
%TO.N,Net-(D2-Pad1)*%
X80675000Y-68072000D03*
%TO.P,D2,2,A*%
%TO.N,DISP_TTL_TX*%
X82550000Y-68072000D03*
%TD*%
%TO.P,D1,1,K*%
%TO.N,GND*%
X74325000Y-68072000D03*
%TO.P,D1,2,A*%
%TO.N,+3.3V*%
X76200000Y-68072000D03*
%TD*%
D13*
%TO.P,C7,1*%
%TO.N,Net-(C7-Pad1)*%
X83792000Y-46792000D03*
%TO.P,C7,2*%
%TO.N,GND*%
X83792000Y-47752000D03*
%TD*%
D16*
%TO.P,R1,1*%
%TO.N,Net-(D2-Pad1)*%
X79248000Y-63502000D03*
%TO.P,R1,2*%
%TO.N,GND*%
X79248000Y-62482000D03*
%TD*%
D15*
%TO.P,C10,1*%
%TO.N,+3.3V*%
X75085000Y-57150000D03*
%TO.P,C10,2*%
%TO.N,GND*%
X76045000Y-57150000D03*
%TD*%
D22*
%TO.P,U1,1,VCC*%
%TO.N,+BATT*%
X95244000Y-60316000D03*
%TO.P,U1,2*%
%TO.N,N/C*%
X92964000Y-60316000D03*
%TO.P,U1,3,OUT*%
%TO.N,+3.3V*%
X90684000Y-60316000D03*
D23*
%TO.P,U1,4,FIN*%
%TO.N,GND*%
X92964000Y-66616000D03*
%TD*%
D24*
%TO.N,+BATT*%
X99822000Y-58674000D03*
%TO.N,GND*%
X92710000Y-38100000D03*
X83058000Y-43942000D03*
X84328000Y-39624000D03*
%TO.N,DISP_TTL_TX*%
X81788000Y-65532000D03*
X87884000Y-45212000D03*
%TO.N,FLARM_TTL_RX*%
X84328000Y-64516000D03*
X89408000Y-45212000D03*
%TD*%
D25*
%TO.N,+3.3V*%
X86614000Y-61291000D02*
X84659000Y-61291000D01*
X84659000Y-61291000D02*
X83312000Y-59944000D01*
X83312000Y-59944000D02*
X77724000Y-59944000D01*
X77880000Y-60100000D02*
X77724000Y-59944000D01*
X77880000Y-60296000D02*
X77880000Y-60100000D01*
X76418957Y-59944000D02*
X75085000Y-58610043D01*
X77724000Y-59944000D02*
X76418957Y-59944000D01*
X86614000Y-61291000D02*
X87707000Y-60198000D01*
X87707000Y-60198000D02*
X90566000Y-60198000D01*
X90566000Y-60198000D02*
X90684000Y-60316000D01*
D26*
%TO.N,+BATT*%
X99314000Y-60296000D02*
X99314000Y-59182000D01*
X99314000Y-59182000D02*
X99822000Y-58674000D01*
D27*
%TO.N,GND*%
X89408000Y-38100000D02*
X92710000Y-38100000D01*
X86868000Y-40640000D02*
X89408000Y-38100000D01*
X86332000Y-40640000D02*
X86868000Y-40640000D01*
D25*
X104662000Y-50292000D02*
X100053000Y-50292000D01*
X100053000Y-50292000D02*
X98275000Y-52070000D01*
D27*
X89888000Y-51252000D02*
X91892000Y-51252000D01*
X91892000Y-51252000D02*
X92710000Y-52070000D01*
X92710000Y-52070000D02*
X98275000Y-52070000D01*
D28*
%TO.N,FLARM_RS232_RX*%
X89877000Y-48328500D02*
X105732500Y-48328500D01*
X105732500Y-48328500D02*
X107202000Y-49798000D01*
X107202000Y-49798000D02*
X107202000Y-51312000D01*
D27*
%TO.N,DISP_RS232_TX*%
X87277000Y-42603500D02*
X87277000Y-41912131D01*
X98044000Y-35052000D02*
X102876000Y-35052000D01*
X87277000Y-41912131D02*
X89057131Y-40132000D01*
X89057131Y-40132000D02*
X92964000Y-40132000D01*
X92964000Y-40132000D02*
X98044000Y-35052000D01*
X102876000Y-35052000D02*
X104662000Y-36838000D01*
D26*
%TO.N,+BATT*%
X107202000Y-55392000D02*
X108184000Y-55392000D01*
X108184000Y-55392000D02*
X112014000Y-51562000D01*
X112014000Y-51562000D02*
X112014000Y-41656000D01*
X112014000Y-41656000D02*
X110256000Y-39898000D01*
X110256000Y-39898000D02*
X107202000Y-39898000D01*
X102135344Y-60296000D02*
X103124000Y-61284656D01*
X103124000Y-61284656D02*
X103124000Y-67148000D01*
D25*
%TO.N,+3.3V*%
X76708000Y-63444000D02*
X77272000Y-63444000D01*
D29*
X85977000Y-43384672D02*
X85977000Y-42603500D01*
X85327000Y-42603500D02*
X85327000Y-40685000D01*
X87927000Y-42603500D02*
X87927000Y-43384672D01*
D25*
X75085000Y-58610043D02*
X75085000Y-58420000D01*
X75085000Y-57150000D02*
X75085000Y-54940000D01*
X81348500Y-42603500D02*
X85327000Y-42603500D01*
X75085000Y-54940000D02*
X75415000Y-54610000D01*
X75415000Y-54610000D02*
X76454000Y-54610000D01*
X77272000Y-63444000D02*
X77880000Y-62836000D01*
D29*
X86323828Y-43731500D02*
X85977000Y-43384672D01*
D25*
X75085000Y-58420000D02*
X75085000Y-57150000D01*
X77880000Y-62836000D02*
X77880000Y-60296000D01*
X76454000Y-54610000D02*
X79248000Y-51816000D01*
D29*
X85327000Y-40685000D02*
X85372000Y-40640000D01*
D25*
X79248000Y-44704000D02*
X81348500Y-42603500D01*
D29*
X85327000Y-42603500D02*
X85977000Y-42603500D01*
X87580172Y-43731500D02*
X86323828Y-43731500D01*
D25*
X76200000Y-63952000D02*
X76708000Y-63444000D01*
D29*
X87927000Y-43384672D02*
X87580172Y-43731500D01*
D25*
X79248000Y-51816000D02*
X79248000Y-44704000D01*
X76200000Y-68072000D02*
X76200000Y-63952000D01*
D27*
%TO.N,GND*%
X83312000Y-47752000D02*
X83058000Y-47498000D01*
X84836000Y-51308000D02*
X85598000Y-52070000D01*
X83058000Y-47498000D02*
X83058000Y-43942000D01*
X84368500Y-48328500D02*
X83792000Y-47752000D01*
X85327000Y-48328500D02*
X84836000Y-48819500D01*
X89070000Y-52070000D02*
X89888000Y-51252000D01*
X89888000Y-56162000D02*
X89535000Y-56515000D01*
X84836000Y-48819500D02*
X84836000Y-51308000D01*
X86360000Y-39878000D02*
X86360000Y-40612000D01*
X85327000Y-48328500D02*
X84368500Y-48328500D01*
X83792000Y-47752000D02*
X83312000Y-47752000D01*
X86332000Y-40640000D02*
X86332000Y-41374000D01*
X85598000Y-52070000D02*
X89070000Y-52070000D01*
X86360000Y-40612000D02*
X86332000Y-40640000D01*
X86332000Y-41374000D02*
X86627000Y-41669000D01*
X89888000Y-51252000D02*
X89888000Y-56162000D01*
X84328000Y-39624000D02*
X86106000Y-39624000D01*
X86106000Y-39624000D02*
X86360000Y-39878000D01*
X86627000Y-41669000D02*
X86627000Y-42603500D01*
%TO.N,Net-(C2-Pad1)*%
X85852000Y-50292000D02*
X85977000Y-50167000D01*
X85977000Y-50167000D02*
X85977000Y-48328500D01*
%TO.N,Net-(C2-Pad2)*%
X87277000Y-49827000D02*
X87277000Y-48328500D01*
X86812000Y-50292000D02*
X87277000Y-49827000D01*
%TO.N,Net-(C3-Pad1)*%
X87912000Y-48343500D02*
X87927000Y-48328500D01*
X87912000Y-50292000D02*
X87912000Y-48343500D01*
%TO.N,Net-(C3-Pad2)*%
X88872000Y-50292000D02*
X88577000Y-49997000D01*
X88577000Y-49997000D02*
X88577000Y-48328500D01*
D26*
%TO.N,+BATT*%
X102135344Y-60296000D02*
X99314000Y-60296000D01*
X95264000Y-60296000D02*
X95244000Y-60316000D01*
X99314000Y-60296000D02*
X95264000Y-60296000D01*
D27*
%TO.N,Net-(C7-Pad1)*%
X86627000Y-47637131D02*
X86627000Y-48328500D01*
X85781869Y-46792000D02*
X86627000Y-47637131D01*
X83792000Y-46792000D02*
X85781869Y-46792000D01*
%TO.N,Net-(C8-Pad2)*%
X89888000Y-50292000D02*
X89227000Y-49631000D01*
X89227000Y-49631000D02*
X89227000Y-48328500D01*
%TO.N,Net-(D2-Pad1)*%
X80675000Y-64929000D02*
X79248000Y-63502000D01*
X80675000Y-68072000D02*
X80675000Y-64929000D01*
%TO.N,DISP_TTL_TX*%
X82550000Y-68072000D02*
X82550000Y-66294000D01*
X88577000Y-44519000D02*
X88577000Y-42603500D01*
X98275000Y-36853000D02*
X98275000Y-36830000D01*
X88577000Y-41912131D02*
X89341131Y-41148000D01*
X89341131Y-41148000D02*
X93980000Y-41148000D01*
X82550000Y-66294000D02*
X81788000Y-65532000D01*
X87884000Y-45212000D02*
X88577000Y-44519000D01*
X93980000Y-41148000D02*
X98275000Y-36853000D01*
X88577000Y-42603500D02*
X88577000Y-41912131D01*
%TO.N,Net-(D3-Pad1)*%
X84485000Y-68072000D02*
X84485000Y-66707000D01*
X84485000Y-66707000D02*
X81280000Y-63502000D01*
%TO.N,FLARM_TTL_RX*%
X96774000Y-39370000D02*
X98275000Y-39370000D01*
X89877000Y-42603500D02*
X93540500Y-42603500D01*
X89877000Y-44743000D02*
X89877000Y-42603500D01*
X86360000Y-68072000D02*
X86360000Y-66548000D01*
X86360000Y-66548000D02*
X84328000Y-64516000D01*
X89408000Y-45212000D02*
X89877000Y-44743000D01*
X93540500Y-42603500D02*
X96774000Y-39370000D01*
%TD*%
%TA.AperFunction,Conductor*%
%TO.N,GND*%
G36*
X74264621Y-55900002D02*
G01*
X74311114Y-55953658D01*
X74322500Y-56006000D01*
X74322500Y-56780282D01*
X74317497Y-56815435D01*
X74301188Y-56871569D01*
X74301187Y-56871574D01*
X74299394Y-56877746D01*
X74298890Y-56884151D01*
X74298889Y-56884156D01*
X74297957Y-56896000D01*
X74296500Y-56914516D01*
X74296500Y-57385484D01*
X74296693Y-57387932D01*
X74296693Y-57387940D01*
X74298451Y-57410271D01*
X74299394Y-57422254D01*
X74301187Y-57428426D01*
X74301188Y-57428431D01*
X74317497Y-57484565D01*
X74322500Y-57519718D01*
X74322500Y-58050282D01*
X74317497Y-58085435D01*
X74301188Y-58141569D01*
X74301187Y-58141574D01*
X74299394Y-58147746D01*
X74298890Y-58154151D01*
X74298889Y-58154156D01*
X74297957Y-58166000D01*
X74296500Y-58184516D01*
X74296500Y-58655484D01*
X74296693Y-58657932D01*
X74296693Y-58657940D01*
X74298102Y-58675833D01*
X74299394Y-58692254D01*
X74315631Y-58748143D01*
X74337753Y-58824286D01*
X74345106Y-58849597D01*
X74351211Y-58859920D01*
X74373284Y-58897243D01*
X74384696Y-58922547D01*
X74384729Y-58922649D01*
X74384731Y-58922653D01*
X74386987Y-58929618D01*
X74390787Y-58935880D01*
X74393325Y-58941423D01*
X74396067Y-58946899D01*
X74398566Y-58953784D01*
X74402581Y-58959908D01*
X74438815Y-59015175D01*
X74441130Y-59018843D01*
X74479227Y-59081624D01*
X74482941Y-59085829D01*
X74482943Y-59085832D01*
X74486667Y-59090048D01*
X74486638Y-59090074D01*
X74489238Y-59093005D01*
X74492042Y-59096359D01*
X74496054Y-59102478D01*
X74501366Y-59107510D01*
X74552586Y-59156031D01*
X74555028Y-59158409D01*
X75832147Y-60435528D01*
X75844534Y-60449941D01*
X75857503Y-60467564D01*
X75863086Y-60472307D01*
X75898012Y-60501979D01*
X75905528Y-60508909D01*
X75911272Y-60514653D01*
X75914146Y-60516927D01*
X75914153Y-60516933D01*
X75933668Y-60532372D01*
X75937072Y-60535163D01*
X75987429Y-60577945D01*
X75987433Y-60577948D01*
X75993008Y-60582684D01*
X75999525Y-60586012D01*
X76004589Y-60589389D01*
X76009813Y-60592616D01*
X76015557Y-60597160D01*
X76022188Y-60600259D01*
X76082039Y-60628232D01*
X76085990Y-60630163D01*
X76151361Y-60663543D01*
X76158476Y-60665284D01*
X76164222Y-60667421D01*
X76170005Y-60669345D01*
X76176636Y-60672444D01*
X76248514Y-60687394D01*
X76252786Y-60688361D01*
X76324069Y-60705804D01*
X76329668Y-60706151D01*
X76329672Y-60706152D01*
X76335287Y-60706500D01*
X76335285Y-60706539D01*
X76339186Y-60706772D01*
X76343545Y-60707161D01*
X76350713Y-60708652D01*
X76358030Y-60708454D01*
X76428534Y-60706546D01*
X76431943Y-60706500D01*
X76991500Y-60706500D01*
X77059621Y-60726502D01*
X77106114Y-60780158D01*
X77117500Y-60832500D01*
X77117500Y-61573542D01*
X77097498Y-61641663D01*
X77043842Y-61688156D01*
X76997531Y-61693928D01*
X76997789Y-61695157D01*
X76980178Y-61698857D01*
X76980175Y-61698891D01*
X76980059Y-61698882D01*
X76964969Y-61702052D01*
X76962000Y-61713513D01*
X76962000Y-62529500D01*
X76941998Y-62597621D01*
X76888342Y-62644114D01*
X76836000Y-62655500D01*
X76472516Y-62655500D01*
X76470068Y-62655693D01*
X76470060Y-62655693D01*
X76442156Y-62657889D01*
X76442151Y-62657890D01*
X76435746Y-62658394D01*
X76336995Y-62687084D01*
X76286016Y-62701894D01*
X76286014Y-62701895D01*
X76278403Y-62704106D01*
X76271581Y-62708141D01*
X76271580Y-62708141D01*
X76250760Y-62720454D01*
X76186621Y-62738000D01*
X75914442Y-62738000D01*
X75900911Y-62741973D01*
X75899776Y-62749871D01*
X75936357Y-62875784D01*
X75942605Y-62890222D01*
X75948016Y-62899372D01*
X75965474Y-62968188D01*
X75948015Y-63027647D01*
X75938106Y-63044403D01*
X75933495Y-63060276D01*
X75909806Y-63141815D01*
X75877904Y-63195758D01*
X75708472Y-63365190D01*
X75694059Y-63377577D01*
X75676436Y-63390546D01*
X75671692Y-63396129D01*
X75671693Y-63396129D01*
X75642021Y-63431055D01*
X75635091Y-63438571D01*
X75629347Y-63444315D01*
X75627073Y-63447189D01*
X75627067Y-63447196D01*
X75611628Y-63466711D01*
X75608837Y-63470115D01*
X75566055Y-63520472D01*
X75566052Y-63520476D01*
X75561316Y-63526051D01*
X75557988Y-63532568D01*
X75554611Y-63537632D01*
X75551384Y-63542856D01*
X75546840Y-63548600D01*
X75536738Y-63570214D01*
X75515768Y-63615082D01*
X75513837Y-63619033D01*
X75480457Y-63684404D01*
X75478716Y-63691519D01*
X75476579Y-63697265D01*
X75474655Y-63703048D01*
X75471556Y-63709679D01*
X75465569Y-63738466D01*
X75456608Y-63781547D01*
X75455639Y-63785829D01*
X75438196Y-63857112D01*
X75437500Y-63868330D01*
X75437461Y-63868328D01*
X75437228Y-63872229D01*
X75436839Y-63876588D01*
X75435348Y-63883756D01*
X75435546Y-63891073D01*
X75437454Y-63961577D01*
X75437500Y-63964986D01*
X75437500Y-67018471D01*
X75417498Y-67086592D01*
X75400673Y-67107488D01*
X75367060Y-67141160D01*
X75367058Y-67141163D01*
X75361883Y-67146347D01*
X75359886Y-67149587D01*
X75303148Y-67189814D01*
X75232225Y-67193047D01*
X75170813Y-67157422D01*
X75163434Y-67148922D01*
X75156718Y-67140448D01*
X75043021Y-67026949D01*
X75031610Y-67017937D01*
X74894846Y-66933635D01*
X74881668Y-66927491D01*
X74728760Y-66876773D01*
X74715394Y-66873907D01*
X74621899Y-66864328D01*
X74615484Y-66864000D01*
X74597115Y-66864000D01*
X74581876Y-66868475D01*
X74580671Y-66869865D01*
X74579000Y-66877548D01*
X74579000Y-69261884D01*
X74583475Y-69277123D01*
X74584865Y-69278328D01*
X74592548Y-69279999D01*
X74615433Y-69279999D01*
X74621952Y-69279662D01*
X74716670Y-69269834D01*
X74730064Y-69266942D01*
X74882865Y-69215964D01*
X74896043Y-69209790D01*
X75032649Y-69125256D01*
X75044050Y-69116220D01*
X75157551Y-69002521D01*
X75163294Y-68995249D01*
X75221211Y-68954186D01*
X75292134Y-68950954D01*
X75353546Y-68986579D01*
X75359340Y-68993254D01*
X75362703Y-68998689D01*
X75486847Y-69122617D01*
X75636171Y-69214661D01*
X75643119Y-69216966D01*
X75643120Y-69216966D01*
X75796134Y-69267719D01*
X75796136Y-69267719D01*
X75802665Y-69269885D01*
X75906269Y-69280500D01*
X76197734Y-69280500D01*
X76493730Y-69280499D01*
X76598629Y-69269616D01*
X76605160Y-69267437D01*
X76605165Y-69267436D01*
X76758078Y-69216420D01*
X76765026Y-69214102D01*
X76914189Y-69121797D01*
X77038117Y-68997653D01*
X77130161Y-68848329D01*
X77137667Y-68825700D01*
X77183219Y-68688366D01*
X77183219Y-68688364D01*
X77185385Y-68681835D01*
X77196000Y-68578231D01*
X77195999Y-67565770D01*
X77185116Y-67460871D01*
X77182937Y-67454340D01*
X77182936Y-67454335D01*
X77131920Y-67301422D01*
X77129602Y-67294474D01*
X77037297Y-67145311D01*
X76999482Y-67107561D01*
X76965403Y-67045280D01*
X76962500Y-67018389D01*
X76962500Y-64332500D01*
X76982502Y-64264379D01*
X77036158Y-64217886D01*
X77088500Y-64206500D01*
X77204624Y-64206500D01*
X77223574Y-64207933D01*
X77237973Y-64210124D01*
X77237979Y-64210124D01*
X77245208Y-64211224D01*
X77252500Y-64210631D01*
X77252503Y-64210631D01*
X77298183Y-64206915D01*
X77308398Y-64206500D01*
X77316525Y-64206500D01*
X77320161Y-64206076D01*
X77320163Y-64206076D01*
X77323615Y-64205673D01*
X77344924Y-64203189D01*
X77349244Y-64202762D01*
X77422426Y-64196809D01*
X77429388Y-64194553D01*
X77435376Y-64193357D01*
X77441333Y-64191949D01*
X77448607Y-64191101D01*
X77455489Y-64188603D01*
X77455493Y-64188602D01*
X77517607Y-64166055D01*
X77521711Y-64164645D01*
X77591575Y-64142013D01*
X77597838Y-64138213D01*
X77603380Y-64135675D01*
X77608856Y-64132933D01*
X77615741Y-64130434D01*
X77677132Y-64090185D01*
X77680800Y-64087870D01*
X77743581Y-64049773D01*
X77747786Y-64046059D01*
X77747789Y-64046057D01*
X77752005Y-64042333D01*
X77752031Y-64042362D01*
X77754962Y-64039762D01*
X77758316Y-64036958D01*
X77764435Y-64032946D01*
X77817989Y-63976413D01*
X77820366Y-63973972D01*
X78204406Y-63589932D01*
X78266718Y-63555906D01*
X78337533Y-63560971D01*
X78394369Y-63603518D01*
X78419180Y-63670038D01*
X78419501Y-63679025D01*
X78419501Y-63701988D01*
X78422371Y-63738466D01*
X78424168Y-63744650D01*
X78464582Y-63883756D01*
X78467731Y-63894596D01*
X78550494Y-64034541D01*
X78665459Y-64149506D01*
X78672280Y-64153540D01*
X78781084Y-64217886D01*
X78805404Y-64232269D01*
X78813015Y-64234480D01*
X78813017Y-64234481D01*
X78861216Y-64248484D01*
X78961534Y-64277629D01*
X78967941Y-64278133D01*
X78967945Y-64278134D01*
X78995556Y-64280307D01*
X78995562Y-64280307D01*
X78998011Y-64280500D01*
X79075577Y-64280500D01*
X79143698Y-64300502D01*
X79164672Y-64317405D01*
X80002595Y-65155328D01*
X80036621Y-65217640D01*
X80039500Y-65244423D01*
X80039500Y-66903305D01*
X80019498Y-66971426D01*
X79979805Y-67010448D01*
X79967036Y-67018350D01*
X79967031Y-67018354D01*
X79960811Y-67022203D01*
X79836883Y-67146347D01*
X79744839Y-67295671D01*
X79742534Y-67302619D01*
X79742534Y-67302620D01*
X79707626Y-67407865D01*
X79689615Y-67462165D01*
X79679000Y-67565769D01*
X79679001Y-68578230D01*
X79689884Y-68683129D01*
X79692063Y-68689660D01*
X79692064Y-68689665D01*
X79702396Y-68720633D01*
X79745398Y-68849526D01*
X79837703Y-68998689D01*
X79961847Y-69122617D01*
X80111171Y-69214661D01*
X80118119Y-69216966D01*
X80118120Y-69216966D01*
X80271134Y-69267719D01*
X80271136Y-69267719D01*
X80277665Y-69269885D01*
X80381269Y-69280500D01*
X80672734Y-69280500D01*
X80968730Y-69280499D01*
X81073629Y-69269616D01*
X81080160Y-69267437D01*
X81080165Y-69267436D01*
X81233078Y-69216420D01*
X81240026Y-69214102D01*
X81389189Y-69121797D01*
X81513117Y-68997653D01*
X81514919Y-68994730D01*
X81571529Y-68954592D01*
X81642452Y-68951358D01*
X81703864Y-68986982D01*
X81709416Y-68993378D01*
X81712703Y-68998689D01*
X81836847Y-69122617D01*
X81986171Y-69214661D01*
X81993119Y-69216966D01*
X81993120Y-69216966D01*
X82146134Y-69267719D01*
X82146136Y-69267719D01*
X82152665Y-69269885D01*
X82256269Y-69280500D01*
X82547734Y-69280500D01*
X82843730Y-69280499D01*
X82948629Y-69269616D01*
X82955160Y-69267437D01*
X82955165Y-69267436D01*
X83108078Y-69216420D01*
X83115026Y-69214102D01*
X83264189Y-69121797D01*
X83388117Y-68997653D01*
X83410286Y-68961688D01*
X83463058Y-68914195D01*
X83533129Y-68902771D01*
X83598253Y-68931045D01*
X83624689Y-68961499D01*
X83647703Y-68998689D01*
X83771847Y-69122617D01*
X83921171Y-69214661D01*
X83928119Y-69216966D01*
X83928120Y-69216966D01*
X84081134Y-69267719D01*
X84081136Y-69267719D01*
X84087665Y-69269885D01*
X84191269Y-69280500D01*
X84482734Y-69280500D01*
X84778730Y-69280499D01*
X84883629Y-69269616D01*
X84890160Y-69267437D01*
X84890165Y-69267436D01*
X85043078Y-69216420D01*
X85050026Y-69214102D01*
X85199189Y-69121797D01*
X85323117Y-68997653D01*
X85324919Y-68994730D01*
X85381529Y-68954592D01*
X85452452Y-68951358D01*
X85513864Y-68986982D01*
X85519416Y-68993378D01*
X85522703Y-68998689D01*
X85646847Y-69122617D01*
X85796171Y-69214661D01*
X85803119Y-69216966D01*
X85803120Y-69216966D01*
X85956134Y-69267719D01*
X85956136Y-69267719D01*
X85962665Y-69269885D01*
X86066269Y-69280500D01*
X86357734Y-69280500D01*
X86653730Y-69280499D01*
X86758629Y-69269616D01*
X86765160Y-69267437D01*
X86765165Y-69267436D01*
X86918078Y-69216420D01*
X86925026Y-69214102D01*
X87074189Y-69121797D01*
X87198117Y-68997653D01*
X87290161Y-68848329D01*
X87297667Y-68825700D01*
X87343219Y-68688366D01*
X87343219Y-68688364D01*
X87345385Y-68681835D01*
X87356000Y-68578231D01*
X87355999Y-67565770D01*
X87345116Y-67460871D01*
X87342937Y-67454340D01*
X87342936Y-67454335D01*
X87291920Y-67301422D01*
X87289602Y-67294474D01*
X87197297Y-67145311D01*
X87073153Y-67021383D01*
X87055384Y-67010430D01*
X87007891Y-66957658D01*
X86995500Y-66903170D01*
X86995500Y-66627032D01*
X86996030Y-66615793D01*
X86997709Y-66608281D01*
X86995562Y-66539969D01*
X86995500Y-66536012D01*
X86995500Y-66508017D01*
X86994992Y-66503994D01*
X86994059Y-66492152D01*
X86993857Y-66485704D01*
X86992665Y-66447795D01*
X86986987Y-66428251D01*
X86982977Y-66408888D01*
X86981420Y-66396560D01*
X86981420Y-66396558D01*
X86980427Y-66388701D01*
X86977511Y-66381337D01*
X86977510Y-66381332D01*
X86964093Y-66347444D01*
X86962874Y-66343885D01*
X89556000Y-66343885D01*
X89560475Y-66359124D01*
X89561865Y-66360329D01*
X89569548Y-66362000D01*
X92691885Y-66362000D01*
X92707124Y-66357525D01*
X92708329Y-66356135D01*
X92710000Y-66348452D01*
X92710000Y-66343885D01*
X93218000Y-66343885D01*
X93222475Y-66359124D01*
X93223865Y-66360329D01*
X93231548Y-66362000D01*
X96353884Y-66362000D01*
X96369123Y-66357525D01*
X96370328Y-66356135D01*
X96371999Y-66348452D01*
X96371999Y-63371331D01*
X96371629Y-63364510D01*
X96366105Y-63313648D01*
X96362479Y-63298396D01*
X96317324Y-63177946D01*
X96308786Y-63162351D01*
X96232285Y-63060276D01*
X96219724Y-63047715D01*
X96117649Y-62971214D01*
X96102054Y-62962676D01*
X95981606Y-62917522D01*
X95966351Y-62913895D01*
X95915486Y-62908369D01*
X95908672Y-62908000D01*
X93236115Y-62908000D01*
X93220876Y-62912475D01*
X93219671Y-62913865D01*
X93218000Y-62921548D01*
X93218000Y-66343885D01*
X92710000Y-66343885D01*
X92710000Y-62926116D01*
X92705525Y-62910877D01*
X92704135Y-62909672D01*
X92696452Y-62908001D01*
X90019331Y-62908001D01*
X90012510Y-62908371D01*
X89961648Y-62913895D01*
X89946396Y-62917521D01*
X89825946Y-62962676D01*
X89810351Y-62971214D01*
X89708276Y-63047715D01*
X89695715Y-63060276D01*
X89619214Y-63162351D01*
X89610676Y-63177946D01*
X89565522Y-63298394D01*
X89561895Y-63313649D01*
X89556369Y-63364514D01*
X89556000Y-63371328D01*
X89556000Y-66343885D01*
X86962874Y-66343885D01*
X86960248Y-66336215D01*
X86952063Y-66308044D01*
X86947869Y-66293607D01*
X86943830Y-66286777D01*
X86937512Y-66276094D01*
X86928812Y-66258336D01*
X86924239Y-66246785D01*
X86924235Y-66246779D01*
X86921319Y-66239412D01*
X86895234Y-66203509D01*
X86888719Y-66193590D01*
X86870174Y-66162232D01*
X86870171Y-66162228D01*
X86866134Y-66155402D01*
X86851750Y-66141018D01*
X86838909Y-66125984D01*
X86831602Y-66115927D01*
X86826942Y-66109513D01*
X86792744Y-66081222D01*
X86783965Y-66073233D01*
X85274790Y-64564057D01*
X85240764Y-64501745D01*
X85238575Y-64488132D01*
X85222232Y-64332635D01*
X85222232Y-64332633D01*
X85221542Y-64326072D01*
X85162527Y-64144444D01*
X85131201Y-64090185D01*
X85109547Y-64052681D01*
X85067040Y-63979056D01*
X85062463Y-63973972D01*
X84943675Y-63842045D01*
X84943674Y-63842044D01*
X84939253Y-63837134D01*
X84803449Y-63738466D01*
X84790094Y-63728763D01*
X84790093Y-63728762D01*
X84784752Y-63724882D01*
X84778724Y-63722198D01*
X84778722Y-63722197D01*
X84616319Y-63649891D01*
X84616318Y-63649891D01*
X84610288Y-63647206D01*
X84516615Y-63627295D01*
X84429944Y-63608872D01*
X84429939Y-63608872D01*
X84423487Y-63607500D01*
X84232513Y-63607500D01*
X84226061Y-63608872D01*
X84226056Y-63608872D01*
X84139385Y-63627295D01*
X84045712Y-63647206D01*
X84039682Y-63649891D01*
X84039681Y-63649891D01*
X83877278Y-63722197D01*
X83877276Y-63722198D01*
X83871248Y-63724882D01*
X83865907Y-63728762D01*
X83865906Y-63728763D01*
X83852551Y-63738466D01*
X83716747Y-63837134D01*
X83712326Y-63842044D01*
X83712325Y-63842045D01*
X83593538Y-63973972D01*
X83588960Y-63979056D01*
X83546453Y-64052681D01*
X83524800Y-64090185D01*
X83493473Y-64144444D01*
X83434458Y-64326072D01*
X83433769Y-64332631D01*
X83433768Y-64332634D01*
X83421017Y-64453955D01*
X83394004Y-64519611D01*
X83335782Y-64560241D01*
X83264837Y-64562944D01*
X83206612Y-64529879D01*
X82145404Y-63468671D01*
X82111378Y-63406359D01*
X82108499Y-63379576D01*
X82108499Y-63302012D01*
X82105629Y-63265534D01*
X82060269Y-63109404D01*
X82028477Y-63055647D01*
X82011018Y-62986834D01*
X82028478Y-62927370D01*
X82055771Y-62881220D01*
X82062019Y-62866783D01*
X82094961Y-62753395D01*
X82094921Y-62739295D01*
X82087651Y-62736000D01*
X81617542Y-62736000D01*
X81582390Y-62730997D01*
X81572647Y-62728166D01*
X81572640Y-62728165D01*
X81566466Y-62726371D01*
X81560059Y-62725867D01*
X81560055Y-62725866D01*
X81532444Y-62723693D01*
X81532438Y-62723693D01*
X81529989Y-62723500D01*
X81280152Y-62723500D01*
X81030012Y-62723501D01*
X80993534Y-62726371D01*
X80987352Y-62728167D01*
X80987347Y-62728168D01*
X80977610Y-62730997D01*
X80942458Y-62736000D01*
X80478100Y-62736000D01*
X80464569Y-62739973D01*
X80463434Y-62747871D01*
X80497981Y-62866783D01*
X80504229Y-62881220D01*
X80531522Y-62927370D01*
X80548982Y-62996187D01*
X80531523Y-63055646D01*
X80499731Y-63109404D01*
X80454371Y-63265534D01*
X80453867Y-63271941D01*
X80453866Y-63271945D01*
X80451693Y-63299556D01*
X80451500Y-63302011D01*
X80451501Y-63470115D01*
X80451501Y-63502576D01*
X80431499Y-63570697D01*
X80377844Y-63617190D01*
X80307570Y-63627295D01*
X80242989Y-63597802D01*
X80236406Y-63591673D01*
X80113404Y-63468672D01*
X80079379Y-63406360D01*
X80076499Y-63379576D01*
X80076499Y-63302012D01*
X80073629Y-63265534D01*
X80028269Y-63109404D01*
X79996477Y-63055647D01*
X79979018Y-62986834D01*
X79996478Y-62927370D01*
X80023771Y-62881220D01*
X80030019Y-62866783D01*
X80062961Y-62753395D01*
X80062921Y-62739295D01*
X80055651Y-62736000D01*
X79585542Y-62736000D01*
X79550390Y-62730997D01*
X79540647Y-62728166D01*
X79540640Y-62728165D01*
X79534466Y-62726371D01*
X79528059Y-62725867D01*
X79528055Y-62725866D01*
X79500444Y-62723693D01*
X79500438Y-62723693D01*
X79497989Y-62723500D01*
X79488070Y-62723500D01*
X79119999Y-62723501D01*
X79051880Y-62703499D01*
X79005387Y-62649844D01*
X78994000Y-62597501D01*
X78994000Y-62516871D01*
X85805776Y-62516871D01*
X85842357Y-62642784D01*
X85848604Y-62657220D01*
X85923876Y-62784499D01*
X85933516Y-62796926D01*
X86038074Y-62901484D01*
X86050501Y-62911124D01*
X86177780Y-62986396D01*
X86192216Y-62992643D01*
X86335641Y-63034312D01*
X86343609Y-63035768D01*
X86357031Y-63032948D01*
X86360000Y-63021487D01*
X86360000Y-63019424D01*
X86868000Y-63019424D01*
X86872344Y-63034219D01*
X86882775Y-63036063D01*
X86892359Y-63034312D01*
X87035784Y-62992643D01*
X87050220Y-62986396D01*
X87177499Y-62911124D01*
X87189926Y-62901484D01*
X87294484Y-62796926D01*
X87304124Y-62784499D01*
X87379396Y-62657220D01*
X87385643Y-62642784D01*
X87420619Y-62522395D01*
X87420579Y-62508295D01*
X87413309Y-62505000D01*
X86886115Y-62505000D01*
X86870876Y-62509475D01*
X86869671Y-62510865D01*
X86868000Y-62518548D01*
X86868000Y-63019424D01*
X86360000Y-63019424D01*
X86360000Y-62523115D01*
X86355525Y-62507876D01*
X86354135Y-62506671D01*
X86346452Y-62505000D01*
X85820442Y-62505000D01*
X85806911Y-62508973D01*
X85805776Y-62516871D01*
X78994000Y-62516871D01*
X78994000Y-62209885D01*
X79502000Y-62209885D01*
X79506475Y-62225124D01*
X79507865Y-62226329D01*
X79515548Y-62228000D01*
X80049900Y-62228000D01*
X80063431Y-62224027D01*
X80064566Y-62216129D01*
X80062961Y-62210605D01*
X80465039Y-62210605D01*
X80465079Y-62224705D01*
X80472349Y-62228000D01*
X81007885Y-62228000D01*
X81023124Y-62223525D01*
X81024329Y-62222135D01*
X81026000Y-62214452D01*
X81026000Y-62209885D01*
X81534000Y-62209885D01*
X81538475Y-62225124D01*
X81539865Y-62226329D01*
X81547548Y-62228000D01*
X82081900Y-62228000D01*
X82095431Y-62224027D01*
X82096566Y-62216129D01*
X82062019Y-62097217D01*
X82055770Y-62082778D01*
X81981146Y-61956595D01*
X81971499Y-61944159D01*
X81867841Y-61840501D01*
X81855405Y-61830854D01*
X81729222Y-61756230D01*
X81714783Y-61749981D01*
X81572564Y-61708662D01*
X81559977Y-61706363D01*
X81552057Y-61705740D01*
X81536970Y-61708910D01*
X81534000Y-61720374D01*
X81534000Y-62209885D01*
X81026000Y-62209885D01*
X81026000Y-61722434D01*
X81021656Y-61707639D01*
X81009997Y-61705579D01*
X81000023Y-61706363D01*
X80987436Y-61708662D01*
X80845217Y-61749981D01*
X80830778Y-61756230D01*
X80704595Y-61830854D01*
X80692159Y-61840501D01*
X80588501Y-61944159D01*
X80578854Y-61956595D01*
X80504230Y-62082778D01*
X80497981Y-62097217D01*
X80465039Y-62210605D01*
X80062961Y-62210605D01*
X80030019Y-62097217D01*
X80023770Y-62082778D01*
X79949146Y-61956595D01*
X79939499Y-61944159D01*
X79835841Y-61840501D01*
X79823405Y-61830854D01*
X79697222Y-61756230D01*
X79682783Y-61749981D01*
X79540564Y-61708662D01*
X79527977Y-61706363D01*
X79520057Y-61705740D01*
X79504970Y-61708910D01*
X79502000Y-61720374D01*
X79502000Y-62209885D01*
X78994000Y-62209885D01*
X78994000Y-61722434D01*
X78989656Y-61707639D01*
X78977997Y-61705579D01*
X78968023Y-61706363D01*
X78955436Y-61708662D01*
X78805604Y-61752193D01*
X78804786Y-61749377D01*
X78748064Y-61756372D01*
X78684089Y-61725586D01*
X78646915Y-61665100D01*
X78642500Y-61632040D01*
X78642500Y-60832500D01*
X78662502Y-60764379D01*
X78716158Y-60717886D01*
X78768500Y-60706500D01*
X82943972Y-60706500D01*
X83012093Y-60726502D01*
X83033067Y-60743405D01*
X84072190Y-61782528D01*
X84084577Y-61796941D01*
X84097546Y-61814564D01*
X84108507Y-61823876D01*
X84138055Y-61848979D01*
X84145571Y-61855909D01*
X84151315Y-61861653D01*
X84154189Y-61863927D01*
X84154196Y-61863933D01*
X84173711Y-61879372D01*
X84177115Y-61882163D01*
X84227472Y-61924945D01*
X84227476Y-61924948D01*
X84233051Y-61929684D01*
X84239568Y-61933012D01*
X84244632Y-61936389D01*
X84249856Y-61939616D01*
X84255600Y-61944160D01*
X84322104Y-61975242D01*
X84326001Y-61977147D01*
X84391404Y-62010543D01*
X84398518Y-62012284D01*
X84404252Y-62014416D01*
X84410048Y-62016344D01*
X84416680Y-62019444D01*
X84488555Y-62034394D01*
X84492839Y-62035364D01*
X84564112Y-62052804D01*
X84569714Y-62053152D01*
X84569717Y-62053152D01*
X84575330Y-62053500D01*
X84575328Y-62053537D01*
X84579227Y-62053773D01*
X84583598Y-62054163D01*
X84590757Y-62055652D01*
X84668577Y-62053546D01*
X84671986Y-62053500D01*
X86244282Y-62053500D01*
X86279435Y-62058503D01*
X86335569Y-62074812D01*
X86335574Y-62074813D01*
X86341746Y-62076606D01*
X86348151Y-62077110D01*
X86348156Y-62077111D01*
X86376060Y-62079307D01*
X86376068Y-62079307D01*
X86378516Y-62079500D01*
X86849484Y-62079500D01*
X86851932Y-62079307D01*
X86851940Y-62079307D01*
X86879844Y-62077111D01*
X86879849Y-62077110D01*
X86886254Y-62076606D01*
X87028208Y-62035365D01*
X87035984Y-62033106D01*
X87035986Y-62033105D01*
X87043597Y-62030894D01*
X87060439Y-62020934D01*
X87071240Y-62014546D01*
X87135379Y-61997000D01*
X87407558Y-61997000D01*
X87421089Y-61993027D01*
X87422224Y-61985129D01*
X87385643Y-61859216D01*
X87379395Y-61844778D01*
X87373984Y-61835628D01*
X87356526Y-61766812D01*
X87373985Y-61707353D01*
X87379858Y-61697421D01*
X87383894Y-61690597D01*
X87412195Y-61593184D01*
X87444096Y-61539242D01*
X87985933Y-60997405D01*
X88048245Y-60963379D01*
X88075028Y-60960500D01*
X89449500Y-60960500D01*
X89517621Y-60980502D01*
X89564114Y-61034158D01*
X89575500Y-61086500D01*
X89575500Y-61464134D01*
X89582255Y-61526316D01*
X89633385Y-61662705D01*
X89720739Y-61779261D01*
X89837295Y-61866615D01*
X89973684Y-61917745D01*
X90035866Y-61924500D01*
X91332134Y-61924500D01*
X91394316Y-61917745D01*
X91530705Y-61866615D01*
X91647261Y-61779261D01*
X91656591Y-61766812D01*
X91723174Y-61677971D01*
X91780033Y-61635456D01*
X91850852Y-61630430D01*
X91913145Y-61664490D01*
X91924826Y-61677971D01*
X91991409Y-61766812D01*
X92000739Y-61779261D01*
X92117295Y-61866615D01*
X92253684Y-61917745D01*
X92315866Y-61924500D01*
X93612134Y-61924500D01*
X93674316Y-61917745D01*
X93810705Y-61866615D01*
X93927261Y-61779261D01*
X93936591Y-61766812D01*
X94003174Y-61677971D01*
X94060033Y-61635456D01*
X94130852Y-61630430D01*
X94193145Y-61664490D01*
X94204826Y-61677971D01*
X94271409Y-61766812D01*
X94280739Y-61779261D01*
X94397295Y-61866615D01*
X94533684Y-61917745D01*
X94595866Y-61924500D01*
X95892134Y-61924500D01*
X95954316Y-61917745D01*
X96090705Y-61866615D01*
X96207261Y-61779261D01*
X96283249Y-61677871D01*
X98505776Y-61677871D01*
X98542357Y-61803784D01*
X98548604Y-61818220D01*
X98623876Y-61945499D01*
X98633516Y-61957926D01*
X98738074Y-62062484D01*
X98750501Y-62072124D01*
X98877780Y-62147396D01*
X98892216Y-62153643D01*
X99035641Y-62195312D01*
X99043609Y-62196768D01*
X99057031Y-62193948D01*
X99060000Y-62182487D01*
X99060000Y-62180424D01*
X99568000Y-62180424D01*
X99572344Y-62195219D01*
X99582775Y-62197063D01*
X99592359Y-62195312D01*
X99735784Y-62153643D01*
X99750220Y-62147396D01*
X99877499Y-62072124D01*
X99889926Y-62062484D01*
X99994484Y-61957926D01*
X100004124Y-61945499D01*
X100079396Y-61818220D01*
X100085643Y-61803784D01*
X100120619Y-61683395D01*
X100120579Y-61669295D01*
X100113309Y-61666000D01*
X99586115Y-61666000D01*
X99570876Y-61670475D01*
X99569671Y-61671865D01*
X99568000Y-61679548D01*
X99568000Y-62180424D01*
X99060000Y-62180424D01*
X99060000Y-61684115D01*
X99055525Y-61668876D01*
X99054135Y-61667671D01*
X99046452Y-61666000D01*
X98520442Y-61666000D01*
X98506911Y-61669973D01*
X98505776Y-61677871D01*
X96283249Y-61677871D01*
X96294615Y-61662705D01*
X96345745Y-61526316D01*
X96352500Y-61464134D01*
X96352500Y-61336900D01*
X96372502Y-61268779D01*
X96426158Y-61222286D01*
X96478500Y-61210900D01*
X98931891Y-61210900D01*
X98967044Y-61215903D01*
X99035569Y-61235812D01*
X99035574Y-61235813D01*
X99041746Y-61237606D01*
X99048151Y-61238110D01*
X99048156Y-61238111D01*
X99076060Y-61240307D01*
X99076068Y-61240307D01*
X99078516Y-61240500D01*
X99549484Y-61240500D01*
X99551932Y-61240307D01*
X99551940Y-61240307D01*
X99579844Y-61238111D01*
X99579849Y-61238110D01*
X99586254Y-61237606D01*
X99592426Y-61235813D01*
X99592431Y-61235812D01*
X99660956Y-61215903D01*
X99696109Y-61210900D01*
X101704190Y-61210900D01*
X101772311Y-61230902D01*
X101793285Y-61247805D01*
X102172195Y-61626715D01*
X102206221Y-61689027D01*
X102209100Y-61715810D01*
X102209100Y-64213500D01*
X102189098Y-64281621D01*
X102135442Y-64328114D01*
X102083100Y-64339500D01*
X102075866Y-64339500D01*
X102013684Y-64346255D01*
X101877295Y-64397385D01*
X101760739Y-64484739D01*
X101673385Y-64601295D01*
X101622255Y-64737684D01*
X101615500Y-64799866D01*
X101615500Y-69496134D01*
X101622255Y-69558316D01*
X101673385Y-69694705D01*
X101760739Y-69811261D01*
X101877295Y-69898615D01*
X102013684Y-69949745D01*
X102075866Y-69956500D01*
X104172134Y-69956500D01*
X104234316Y-69949745D01*
X104370705Y-69898615D01*
X104487261Y-69811261D01*
X104574615Y-69694705D01*
X104625745Y-69558316D01*
X104632500Y-69496134D01*
X104632500Y-68306456D01*
X107916000Y-68306456D01*
X107916202Y-68311488D01*
X107930150Y-68484843D01*
X107931762Y-68494796D01*
X107987233Y-68720633D01*
X107990416Y-68730203D01*
X108081280Y-68944265D01*
X108085955Y-68953207D01*
X108209874Y-69149987D01*
X108215914Y-69158060D01*
X108369703Y-69332500D01*
X108376956Y-69339504D01*
X108556654Y-69487110D01*
X108564936Y-69492866D01*
X108765919Y-69609841D01*
X108775024Y-69614203D01*
X108992115Y-69697537D01*
X109001804Y-69700388D01*
X109152264Y-69731821D01*
X109166325Y-69730698D01*
X109170000Y-69720590D01*
X109170000Y-69718590D01*
X109678000Y-69718590D01*
X109682136Y-69732676D01*
X109695114Y-69734725D01*
X109712830Y-69732675D01*
X109722727Y-69730715D01*
X109946494Y-69667396D01*
X109955938Y-69663884D01*
X110166705Y-69565601D01*
X110175471Y-69560622D01*
X110367802Y-69429913D01*
X110375677Y-69423581D01*
X110544626Y-69263814D01*
X110551387Y-69256305D01*
X110692625Y-69071574D01*
X110698089Y-69063095D01*
X110807978Y-68858153D01*
X110812020Y-68848901D01*
X110887727Y-68629029D01*
X110890236Y-68619257D01*
X110930004Y-68389029D01*
X110930859Y-68381157D01*
X110931936Y-68357449D01*
X110932000Y-68354616D01*
X110932000Y-67420115D01*
X110927525Y-67404876D01*
X110926135Y-67403671D01*
X110918452Y-67402000D01*
X109696115Y-67402000D01*
X109680876Y-67406475D01*
X109679671Y-67407865D01*
X109678000Y-67415548D01*
X109678000Y-69718590D01*
X109170000Y-69718590D01*
X109170000Y-67420115D01*
X109165525Y-67404876D01*
X109164135Y-67403671D01*
X109156452Y-67402000D01*
X107934115Y-67402000D01*
X107918876Y-67406475D01*
X107917671Y-67407865D01*
X107916000Y-67415548D01*
X107916000Y-68306456D01*
X104632500Y-68306456D01*
X104632500Y-66875885D01*
X107916000Y-66875885D01*
X107920475Y-66891124D01*
X107921865Y-66892329D01*
X107929548Y-66894000D01*
X109151885Y-66894000D01*
X109167124Y-66889525D01*
X109168329Y-66888135D01*
X109170000Y-66880452D01*
X109170000Y-66875885D01*
X109678000Y-66875885D01*
X109682475Y-66891124D01*
X109683865Y-66892329D01*
X109691548Y-66894000D01*
X110913885Y-66894000D01*
X110929124Y-66889525D01*
X110930329Y-66888135D01*
X110932000Y-66880452D01*
X110932000Y-65989544D01*
X110931798Y-65984512D01*
X110917850Y-65811157D01*
X110916238Y-65801204D01*
X110860767Y-65575367D01*
X110857584Y-65565797D01*
X110766720Y-65351735D01*
X110762045Y-65342793D01*
X110638126Y-65146013D01*
X110632086Y-65137940D01*
X110478297Y-64963500D01*
X110471044Y-64956496D01*
X110291346Y-64808890D01*
X110283064Y-64803134D01*
X110082081Y-64686159D01*
X110072976Y-64681797D01*
X109855885Y-64598463D01*
X109846196Y-64595612D01*
X109695736Y-64564179D01*
X109681675Y-64565302D01*
X109678000Y-64575410D01*
X109678000Y-66875885D01*
X109170000Y-66875885D01*
X109170000Y-64577410D01*
X109165864Y-64563324D01*
X109152886Y-64561275D01*
X109135170Y-64563325D01*
X109125273Y-64565285D01*
X108901506Y-64628604D01*
X108892062Y-64632116D01*
X108681295Y-64730399D01*
X108672529Y-64735378D01*
X108480198Y-64866087D01*
X108472323Y-64872419D01*
X108303374Y-65032186D01*
X108296613Y-65039695D01*
X108155375Y-65224426D01*
X108149911Y-65232905D01*
X108040022Y-65437847D01*
X108035980Y-65447099D01*
X107960273Y-65666971D01*
X107957764Y-65676743D01*
X107917996Y-65906971D01*
X107917141Y-65914843D01*
X107916064Y-65938551D01*
X107916000Y-65941384D01*
X107916000Y-66875885D01*
X104632500Y-66875885D01*
X104632500Y-64799866D01*
X104625745Y-64737684D01*
X104574615Y-64601295D01*
X104487261Y-64484739D01*
X104370705Y-64397385D01*
X104234316Y-64346255D01*
X104172134Y-64339500D01*
X104164900Y-64339500D01*
X104096779Y-64319498D01*
X104050286Y-64265842D01*
X104038900Y-64213500D01*
X104038900Y-63795651D01*
X104058902Y-63727530D01*
X104112558Y-63681037D01*
X104182832Y-63670933D01*
X104224441Y-63684607D01*
X104294547Y-63722197D01*
X104318109Y-63734831D01*
X104547631Y-63813862D01*
X104646978Y-63831022D01*
X104782926Y-63854504D01*
X104782932Y-63854505D01*
X104786836Y-63855179D01*
X104790797Y-63855359D01*
X104790798Y-63855359D01*
X104814506Y-63856436D01*
X104814525Y-63856436D01*
X104815925Y-63856500D01*
X107185001Y-63856500D01*
X107187509Y-63856298D01*
X107187514Y-63856298D01*
X107360924Y-63842346D01*
X107360929Y-63842345D01*
X107365965Y-63841940D01*
X107370873Y-63840734D01*
X107370876Y-63840734D01*
X107596792Y-63785244D01*
X107601706Y-63784037D01*
X107606358Y-63782062D01*
X107606362Y-63782061D01*
X107795001Y-63701988D01*
X107825156Y-63689188D01*
X107923440Y-63627295D01*
X108026288Y-63562528D01*
X108026291Y-63562526D01*
X108030567Y-63559833D01*
X108133971Y-63468671D01*
X108208858Y-63402650D01*
X108208861Y-63402647D01*
X108212655Y-63399302D01*
X108235138Y-63371931D01*
X108363526Y-63215628D01*
X108363528Y-63215625D01*
X108366734Y-63211722D01*
X108454878Y-63060276D01*
X108486299Y-63006290D01*
X108486300Y-63006288D01*
X108488841Y-63001922D01*
X108517940Y-62926116D01*
X108574020Y-62780022D01*
X108574021Y-62780018D01*
X108575833Y-62775298D01*
X108583213Y-62739973D01*
X108624440Y-62542631D01*
X108624440Y-62542627D01*
X108625474Y-62537680D01*
X108636486Y-62295183D01*
X108628563Y-62226705D01*
X108609167Y-62059071D01*
X108609166Y-62059067D01*
X108608585Y-62054044D01*
X108603300Y-62035365D01*
X108554024Y-61861229D01*
X108542490Y-61820468D01*
X108540356Y-61815892D01*
X108540354Y-61815886D01*
X108442038Y-61605046D01*
X108442036Y-61605042D01*
X108439901Y-61600464D01*
X108303456Y-61399693D01*
X108136668Y-61223319D01*
X107998149Y-61117413D01*
X107947846Y-61078953D01*
X107947842Y-61078950D01*
X107943826Y-61075880D01*
X107729891Y-60961169D01*
X107500369Y-60882138D01*
X107401022Y-60864978D01*
X107265074Y-60841496D01*
X107265068Y-60841495D01*
X107261164Y-60840821D01*
X107257203Y-60840641D01*
X107257202Y-60840641D01*
X107233494Y-60839564D01*
X107233475Y-60839564D01*
X107232075Y-60839500D01*
X104862999Y-60839500D01*
X104860491Y-60839702D01*
X104860486Y-60839702D01*
X104687076Y-60853654D01*
X104687071Y-60853655D01*
X104682035Y-60854060D01*
X104677127Y-60855266D01*
X104677124Y-60855266D01*
X104451208Y-60910756D01*
X104446294Y-60911963D01*
X104441642Y-60913938D01*
X104441638Y-60913939D01*
X104245005Y-60997405D01*
X104222844Y-61006812D01*
X104173987Y-61037579D01*
X104105688Y-61056953D01*
X104037754Y-61036325D01*
X103991757Y-60982244D01*
X103985141Y-60963573D01*
X103984546Y-60961354D01*
X103982838Y-60954979D01*
X103979843Y-60949100D01*
X103979841Y-60949096D01*
X103976373Y-60942290D01*
X103968806Y-60924021D01*
X103966450Y-60916770D01*
X103966449Y-60916768D01*
X103964407Y-60910483D01*
X103929961Y-60850821D01*
X103926815Y-60845027D01*
X103924102Y-60839702D01*
X103895527Y-60783621D01*
X103886565Y-60772554D01*
X103875368Y-60756262D01*
X103868247Y-60743929D01*
X103844798Y-60717886D01*
X103822151Y-60692734D01*
X103817867Y-60687718D01*
X103806923Y-60674203D01*
X103806910Y-60674189D01*
X103804839Y-60671631D01*
X103790215Y-60657007D01*
X103785674Y-60652222D01*
X103743982Y-60605918D01*
X103743981Y-60605917D01*
X103739560Y-60601007D01*
X103728032Y-60592631D01*
X103713000Y-60579792D01*
X102840208Y-59707000D01*
X102827366Y-59691965D01*
X102818993Y-59680440D01*
X102806940Y-59669587D01*
X102767778Y-59634326D01*
X102762993Y-59629785D01*
X102748369Y-59615161D01*
X102732289Y-59602139D01*
X102727283Y-59597864D01*
X102725152Y-59595945D01*
X102676071Y-59551753D01*
X102670357Y-59548454D01*
X102670353Y-59548451D01*
X102663738Y-59544632D01*
X102647444Y-59533434D01*
X102641511Y-59528629D01*
X102641507Y-59528626D01*
X102636379Y-59524474D01*
X102574986Y-59493193D01*
X102569201Y-59490052D01*
X102515233Y-59458893D01*
X102515232Y-59458892D01*
X102509517Y-59455593D01*
X102503240Y-59453554D01*
X102503232Y-59453550D01*
X102495977Y-59451193D01*
X102477708Y-59443626D01*
X102470908Y-59440161D01*
X102470902Y-59440159D01*
X102465021Y-59437162D01*
X102458647Y-59435454D01*
X102458644Y-59435453D01*
X102402598Y-59420436D01*
X102398448Y-59419324D01*
X102392147Y-59417457D01*
X102326610Y-59396163D01*
X102312453Y-59394675D01*
X102293008Y-59391071D01*
X102288935Y-59389980D01*
X102285629Y-59389094D01*
X102285628Y-59389094D01*
X102279254Y-59387386D01*
X102272664Y-59387041D01*
X102272660Y-59387040D01*
X102216268Y-59384085D01*
X102210450Y-59383780D01*
X102203880Y-59383263D01*
X102183296Y-59381100D01*
X102162600Y-59381100D01*
X102156006Y-59380927D01*
X102093790Y-59377666D01*
X102093786Y-59377666D01*
X102087198Y-59377321D01*
X102073130Y-59379549D01*
X102053421Y-59381100D01*
X100690822Y-59381100D01*
X100622701Y-59361098D01*
X100576208Y-59307442D01*
X100566104Y-59237168D01*
X100587969Y-59187126D01*
X100585776Y-59185702D01*
X100589370Y-59180168D01*
X100593526Y-59175036D01*
X100597180Y-59167866D01*
X100677841Y-59009558D01*
X100680837Y-59003678D01*
X100682749Y-58996544D01*
X100728905Y-58824286D01*
X100728905Y-58824284D01*
X100730613Y-58817911D01*
X100731142Y-58807827D01*
X100733996Y-58753371D01*
X107800852Y-58753371D01*
X107802940Y-58841984D01*
X107806701Y-59001570D01*
X107806904Y-59010195D01*
X107818714Y-59076831D01*
X107850793Y-59257837D01*
X107851734Y-59263149D01*
X107853272Y-59267679D01*
X107853272Y-59267680D01*
X107892508Y-59383263D01*
X107934311Y-59506411D01*
X108052733Y-59734383D01*
X108204276Y-59941820D01*
X108294864Y-60032884D01*
X108382078Y-60120557D01*
X108382083Y-60120561D01*
X108385452Y-60123948D01*
X108592093Y-60276575D01*
X108819442Y-60396189D01*
X108823961Y-60397750D01*
X108823967Y-60397752D01*
X109026144Y-60467564D01*
X109062269Y-60480038D01*
X109200525Y-60505288D01*
X109264287Y-60516933D01*
X109314984Y-60526192D01*
X109397186Y-60530500D01*
X109557324Y-60530500D01*
X109559703Y-60530319D01*
X109559704Y-60530319D01*
X109743389Y-60516347D01*
X109743394Y-60516346D01*
X109748156Y-60515984D01*
X109752809Y-60514905D01*
X109752812Y-60514905D01*
X109993752Y-60459057D01*
X109993751Y-60459057D01*
X109998416Y-60457976D01*
X110237023Y-60362782D01*
X110458486Y-60232591D01*
X110657707Y-60070399D01*
X110830103Y-59879939D01*
X110971706Y-59665594D01*
X110988215Y-59629785D01*
X111077252Y-59436648D01*
X111077253Y-59436645D01*
X111079258Y-59432296D01*
X111083234Y-59418474D01*
X111148962Y-59190007D01*
X111148963Y-59190003D01*
X111150283Y-59185414D01*
X111151066Y-59179348D01*
X111182537Y-58935366D01*
X111183148Y-58930629D01*
X111177890Y-58707500D01*
X111177209Y-58678584D01*
X111177208Y-58678579D01*
X111177096Y-58673805D01*
X111146883Y-58503327D01*
X111133101Y-58425560D01*
X111133100Y-58425554D01*
X111132266Y-58420851D01*
X111049689Y-58177589D01*
X110931267Y-57949617D01*
X110779724Y-57742180D01*
X110648811Y-57610579D01*
X110601922Y-57563443D01*
X110601917Y-57563439D01*
X110598548Y-57560052D01*
X110391907Y-57407425D01*
X110385398Y-57404000D01*
X110228054Y-57321218D01*
X110164558Y-57287811D01*
X110160039Y-57286250D01*
X110160033Y-57286248D01*
X109926249Y-57205522D01*
X109926248Y-57205522D01*
X109921731Y-57203962D01*
X109669016Y-57157808D01*
X109586814Y-57153500D01*
X109426676Y-57153500D01*
X109424297Y-57153681D01*
X109424296Y-57153681D01*
X109240611Y-57167653D01*
X109240606Y-57167654D01*
X109235844Y-57168016D01*
X109231191Y-57169095D01*
X109231188Y-57169095D01*
X109074034Y-57205522D01*
X108985584Y-57226024D01*
X108746977Y-57321218D01*
X108525514Y-57451409D01*
X108326293Y-57613601D01*
X108153897Y-57804061D01*
X108012294Y-58018406D01*
X108010293Y-58022746D01*
X108010291Y-58022750D01*
X107936848Y-58182060D01*
X107904742Y-58251704D01*
X107903418Y-58256305D01*
X107903418Y-58256306D01*
X107854726Y-58425560D01*
X107833717Y-58498586D01*
X107833106Y-58503321D01*
X107833105Y-58503327D01*
X107807948Y-58698359D01*
X107800852Y-58753371D01*
X100733996Y-58753371D01*
X100740334Y-58632445D01*
X100740334Y-58632441D01*
X100740679Y-58625854D01*
X100734622Y-58587614D01*
X100711626Y-58442424D01*
X100711626Y-58442423D01*
X100710593Y-58435903D01*
X100680348Y-58357110D01*
X100644040Y-58262525D01*
X100641672Y-58256356D01*
X100536927Y-58095064D01*
X100400936Y-57959073D01*
X100239644Y-57854328D01*
X100137615Y-57815163D01*
X100066264Y-57787774D01*
X100066262Y-57787773D01*
X100060097Y-57785407D01*
X100053577Y-57784374D01*
X100053576Y-57784374D01*
X99876662Y-57756353D01*
X99876661Y-57756353D01*
X99870146Y-57755321D01*
X99863559Y-57755666D01*
X99863555Y-57755666D01*
X99684683Y-57765041D01*
X99684679Y-57765042D01*
X99678089Y-57765387D01*
X99671716Y-57767095D01*
X99671714Y-57767095D01*
X99498696Y-57813455D01*
X99492322Y-57815163D01*
X99486442Y-57818159D01*
X99326845Y-57899477D01*
X99326841Y-57899479D01*
X99320964Y-57902474D01*
X99315835Y-57906627D01*
X99315831Y-57906630D01*
X99262747Y-57949617D01*
X99208975Y-57993161D01*
X98725000Y-58477136D01*
X98709968Y-58489975D01*
X98698440Y-58498351D01*
X98694019Y-58503261D01*
X98694018Y-58503262D01*
X98652326Y-58549566D01*
X98647785Y-58554351D01*
X98633161Y-58568975D01*
X98631089Y-58571534D01*
X98631086Y-58571537D01*
X98620147Y-58585046D01*
X98615869Y-58590056D01*
X98569753Y-58641273D01*
X98566454Y-58646987D01*
X98566451Y-58646991D01*
X98562632Y-58653606D01*
X98551434Y-58669900D01*
X98546629Y-58675833D01*
X98546626Y-58675837D01*
X98542474Y-58680965D01*
X98539477Y-58686847D01*
X98511200Y-58742345D01*
X98508052Y-58748143D01*
X98494988Y-58770771D01*
X98473593Y-58807827D01*
X98471554Y-58814104D01*
X98471550Y-58814112D01*
X98469193Y-58821367D01*
X98461626Y-58839636D01*
X98458161Y-58846436D01*
X98458159Y-58846442D01*
X98455162Y-58852323D01*
X98453454Y-58858697D01*
X98453453Y-58858700D01*
X98437326Y-58918889D01*
X98435457Y-58925197D01*
X98414163Y-58990734D01*
X98412675Y-59004891D01*
X98409071Y-59024336D01*
X98405386Y-59038090D01*
X98405041Y-59044680D01*
X98405040Y-59044684D01*
X98401780Y-59106892D01*
X98401263Y-59113464D01*
X98399100Y-59134048D01*
X98399100Y-59154744D01*
X98398927Y-59161338D01*
X98395787Y-59221257D01*
X98395321Y-59230146D01*
X98396353Y-59236662D01*
X98396699Y-59243264D01*
X98395121Y-59243347D01*
X98387056Y-59305791D01*
X98341339Y-59360109D01*
X98271703Y-59381100D01*
X96478500Y-59381100D01*
X96410379Y-59361098D01*
X96363886Y-59307442D01*
X96352500Y-59255100D01*
X96352500Y-59167866D01*
X96345745Y-59105684D01*
X96294615Y-58969295D01*
X96207261Y-58852739D01*
X96090705Y-58765385D01*
X95954316Y-58714255D01*
X95892134Y-58707500D01*
X94595866Y-58707500D01*
X94533684Y-58714255D01*
X94397295Y-58765385D01*
X94280739Y-58852739D01*
X94275358Y-58859919D01*
X94275357Y-58859920D01*
X94204826Y-58954029D01*
X94147967Y-58996544D01*
X94077148Y-59001570D01*
X94014855Y-58967510D01*
X94003174Y-58954029D01*
X93932643Y-58859920D01*
X93932642Y-58859919D01*
X93927261Y-58852739D01*
X93810705Y-58765385D01*
X93674316Y-58714255D01*
X93612134Y-58707500D01*
X92315866Y-58707500D01*
X92253684Y-58714255D01*
X92117295Y-58765385D01*
X92000739Y-58852739D01*
X91995358Y-58859919D01*
X91995357Y-58859920D01*
X91924826Y-58954029D01*
X91867967Y-58996544D01*
X91797148Y-59001570D01*
X91734855Y-58967510D01*
X91723174Y-58954029D01*
X91652643Y-58859920D01*
X91652642Y-58859919D01*
X91647261Y-58852739D01*
X91530705Y-58765385D01*
X91394316Y-58714255D01*
X91332134Y-58707500D01*
X90035866Y-58707500D01*
X89973684Y-58714255D01*
X89837295Y-58765385D01*
X89720739Y-58852739D01*
X89633385Y-58969295D01*
X89582255Y-59105684D01*
X89575500Y-59167866D01*
X89575500Y-59309500D01*
X89555498Y-59377621D01*
X89501842Y-59424114D01*
X89449500Y-59435500D01*
X87774368Y-59435500D01*
X87755420Y-59434067D01*
X87748033Y-59432943D01*
X87741024Y-59431877D01*
X87741022Y-59431877D01*
X87733792Y-59430777D01*
X87726500Y-59431370D01*
X87726497Y-59431370D01*
X87680825Y-59435085D01*
X87670611Y-59435500D01*
X87662475Y-59435500D01*
X87658840Y-59435924D01*
X87658837Y-59435924D01*
X87640835Y-59438023D01*
X87634084Y-59438810D01*
X87629713Y-59439243D01*
X87618701Y-59440138D01*
X87563872Y-59444597D01*
X87563869Y-59444598D01*
X87556573Y-59445191D01*
X87549611Y-59447446D01*
X87543607Y-59448646D01*
X87537660Y-59450052D01*
X87530393Y-59450899D01*
X87461388Y-59475947D01*
X87457227Y-59477375D01*
X87394387Y-59497732D01*
X87394382Y-59497734D01*
X87387425Y-59499988D01*
X87381173Y-59503782D01*
X87375598Y-59506334D01*
X87370135Y-59509070D01*
X87363259Y-59511566D01*
X87357140Y-59515578D01*
X87301863Y-59551819D01*
X87298159Y-59554156D01*
X87235419Y-59592228D01*
X87226994Y-59599668D01*
X87226969Y-59599640D01*
X87224044Y-59602234D01*
X87220690Y-59605039D01*
X87214565Y-59609054D01*
X87209530Y-59614369D01*
X87209529Y-59614370D01*
X87161012Y-59665586D01*
X87158634Y-59668028D01*
X86335759Y-60490903D01*
X86281831Y-60522801D01*
X86279443Y-60523495D01*
X86244283Y-60528500D01*
X85027028Y-60528500D01*
X84958907Y-60508498D01*
X84937933Y-60491595D01*
X83898810Y-59452472D01*
X83886423Y-59438059D01*
X83881874Y-59431877D01*
X83873454Y-59420436D01*
X83832945Y-59386021D01*
X83825429Y-59379091D01*
X83819685Y-59373347D01*
X83816811Y-59371073D01*
X83816804Y-59371067D01*
X83797289Y-59355628D01*
X83793885Y-59352837D01*
X83743528Y-59310055D01*
X83743524Y-59310052D01*
X83737949Y-59305316D01*
X83731432Y-59301988D01*
X83726368Y-59298611D01*
X83721144Y-59295384D01*
X83715400Y-59290840D01*
X83689109Y-59278552D01*
X83648918Y-59259768D01*
X83644967Y-59257837D01*
X83586117Y-59227787D01*
X83579596Y-59224457D01*
X83572481Y-59222716D01*
X83566735Y-59220579D01*
X83560952Y-59218655D01*
X83554321Y-59215556D01*
X83482443Y-59200606D01*
X83478171Y-59199639D01*
X83406888Y-59182196D01*
X83401289Y-59181849D01*
X83401285Y-59181848D01*
X83395670Y-59181500D01*
X83395672Y-59181461D01*
X83391771Y-59181228D01*
X83387412Y-59180839D01*
X83380244Y-59179348D01*
X83372927Y-59179546D01*
X83302423Y-59181454D01*
X83299014Y-59181500D01*
X77812435Y-59181500D01*
X77801236Y-59181001D01*
X77799406Y-59180838D01*
X77792244Y-59179348D01*
X77722774Y-59181228D01*
X77714423Y-59181454D01*
X77711014Y-59181500D01*
X76808736Y-59181500D01*
X76740615Y-59161498D01*
X76694122Y-59107842D01*
X76684018Y-59037568D01*
X76703475Y-58991730D01*
X76701090Y-58990320D01*
X76780396Y-58856220D01*
X76786643Y-58841784D01*
X76828312Y-58698359D01*
X76829768Y-58690391D01*
X76826948Y-58676969D01*
X76815487Y-58674000D01*
X76279485Y-58674000D01*
X76211364Y-58653998D01*
X76190390Y-58637095D01*
X75910405Y-58357110D01*
X75876379Y-58294798D01*
X75873500Y-58268015D01*
X75873500Y-58184516D01*
X75872043Y-58166000D01*
X75871111Y-58154156D01*
X75871110Y-58154151D01*
X75870617Y-58147885D01*
X76299000Y-58147885D01*
X76303475Y-58163124D01*
X76304865Y-58164329D01*
X76312548Y-58166000D01*
X76813424Y-58166000D01*
X76828219Y-58161656D01*
X76830063Y-58151225D01*
X76828312Y-58141641D01*
X76786643Y-57998216D01*
X76780396Y-57983780D01*
X76701090Y-57849680D01*
X76703977Y-57847973D01*
X76683622Y-57796193D01*
X76697494Y-57726564D01*
X76701392Y-57720499D01*
X76701090Y-57720320D01*
X76780396Y-57586220D01*
X76786643Y-57571784D01*
X76828312Y-57428359D01*
X76829768Y-57420391D01*
X76826948Y-57406969D01*
X76815487Y-57404000D01*
X76317115Y-57404000D01*
X76301876Y-57408475D01*
X76300671Y-57409865D01*
X76299000Y-57417548D01*
X76299000Y-58147885D01*
X75870617Y-58147885D01*
X75870606Y-58147746D01*
X75868813Y-58141574D01*
X75868812Y-58141569D01*
X75852503Y-58085435D01*
X75847500Y-58050282D01*
X75847500Y-57519718D01*
X75852503Y-57484565D01*
X75868812Y-57428431D01*
X75868813Y-57428426D01*
X75870606Y-57422254D01*
X75871550Y-57410271D01*
X75873307Y-57387940D01*
X75873307Y-57387932D01*
X75873500Y-57385484D01*
X75873500Y-56914516D01*
X75872043Y-56896000D01*
X75871111Y-56884156D01*
X75871110Y-56884151D01*
X75870617Y-56877885D01*
X76299000Y-56877885D01*
X76303475Y-56893124D01*
X76304865Y-56894329D01*
X76312548Y-56896000D01*
X76813424Y-56896000D01*
X76828219Y-56891656D01*
X76830063Y-56881225D01*
X76828312Y-56871641D01*
X76786643Y-56728216D01*
X76780396Y-56713780D01*
X76705124Y-56586501D01*
X76695484Y-56574074D01*
X76590926Y-56469516D01*
X76578499Y-56459876D01*
X76451220Y-56384604D01*
X76436784Y-56378357D01*
X76316395Y-56343381D01*
X76302295Y-56343421D01*
X76299000Y-56350691D01*
X76299000Y-56877885D01*
X75870617Y-56877885D01*
X75870606Y-56877746D01*
X75868813Y-56871574D01*
X75868812Y-56871569D01*
X75852503Y-56815435D01*
X75847500Y-56780282D01*
X75847500Y-56006000D01*
X75867502Y-55937879D01*
X75921158Y-55891386D01*
X75973500Y-55880000D01*
X97742461Y-55880000D01*
X97775070Y-55884293D01*
X97846913Y-55903543D01*
X97946480Y-55912254D01*
X98015149Y-55918262D01*
X98015156Y-55918262D01*
X98017873Y-55918500D01*
X98532127Y-55918500D01*
X98534844Y-55918262D01*
X98534851Y-55918262D01*
X98603520Y-55912254D01*
X98703087Y-55903543D01*
X98774930Y-55884293D01*
X98807539Y-55880000D01*
X105849024Y-55880000D01*
X105917145Y-55900002D01*
X105965767Y-55958596D01*
X105983322Y-56001829D01*
X105985266Y-56006616D01*
X106014103Y-56053674D01*
X106075930Y-56154566D01*
X106101987Y-56197088D01*
X106248250Y-56365938D01*
X106420126Y-56508632D01*
X106613000Y-56621338D01*
X106821692Y-56701030D01*
X106826760Y-56702061D01*
X106826763Y-56702062D01*
X106934017Y-56723883D01*
X107040597Y-56745567D01*
X107045772Y-56745757D01*
X107045774Y-56745757D01*
X107258673Y-56753564D01*
X107258677Y-56753564D01*
X107263837Y-56753753D01*
X107268957Y-56753097D01*
X107268959Y-56753097D01*
X107480288Y-56726025D01*
X107480289Y-56726025D01*
X107485416Y-56725368D01*
X107524041Y-56713780D01*
X107694429Y-56662661D01*
X107694434Y-56662659D01*
X107699384Y-56661174D01*
X107899994Y-56562896D01*
X108081860Y-56433173D01*
X108085515Y-56429531D01*
X108085523Y-56429524D01*
X108174302Y-56341055D01*
X108236673Y-56307139D01*
X108250056Y-56304997D01*
X108252537Y-56304737D01*
X108259106Y-56304220D01*
X108264924Y-56303915D01*
X108321316Y-56300960D01*
X108321320Y-56300959D01*
X108327910Y-56300614D01*
X108334284Y-56298906D01*
X108334285Y-56298906D01*
X108337591Y-56298020D01*
X108341664Y-56296929D01*
X108361109Y-56293325D01*
X108375266Y-56291837D01*
X108440803Y-56270543D01*
X108447104Y-56268676D01*
X108470874Y-56262307D01*
X108507300Y-56252547D01*
X108507303Y-56252546D01*
X108513677Y-56250838D01*
X108519558Y-56247841D01*
X108519564Y-56247839D01*
X108526364Y-56244374D01*
X108544633Y-56236807D01*
X108551888Y-56234450D01*
X108551896Y-56234446D01*
X108558173Y-56232407D01*
X108617857Y-56197948D01*
X108623642Y-56194807D01*
X108685035Y-56163526D01*
X108690163Y-56159374D01*
X108690167Y-56159371D01*
X108696100Y-56154566D01*
X108712394Y-56143368D01*
X108719009Y-56139549D01*
X108719013Y-56139546D01*
X108724727Y-56136247D01*
X108775944Y-56090131D01*
X108780945Y-56085861D01*
X108797025Y-56072839D01*
X108811649Y-56058215D01*
X108816434Y-56053674D01*
X108862738Y-56011982D01*
X108862739Y-56011981D01*
X108867649Y-56007560D01*
X108876025Y-55996032D01*
X108888864Y-55981000D01*
X108952959Y-55916905D01*
X109015271Y-55882879D01*
X109042054Y-55880000D01*
X112903500Y-55880000D01*
X112971621Y-55900002D01*
X113018114Y-55953658D01*
X113029500Y-56006000D01*
X113029500Y-71756000D01*
X113009498Y-71824121D01*
X112955842Y-71870614D01*
X112903500Y-71882000D01*
X73278500Y-71882000D01*
X73210379Y-71861998D01*
X73163886Y-71808342D01*
X73152500Y-71756000D01*
X73152500Y-69860669D01*
X89556001Y-69860669D01*
X89556371Y-69867490D01*
X89561895Y-69918352D01*
X89565521Y-69933604D01*
X89610676Y-70054054D01*
X89619214Y-70069649D01*
X89695715Y-70171724D01*
X89708276Y-70184285D01*
X89810351Y-70260786D01*
X89825946Y-70269324D01*
X89946394Y-70314478D01*
X89961649Y-70318105D01*
X90012514Y-70323631D01*
X90019328Y-70324000D01*
X92691885Y-70324000D01*
X92707124Y-70319525D01*
X92708329Y-70318135D01*
X92710000Y-70310452D01*
X92710000Y-70305884D01*
X93218000Y-70305884D01*
X93222475Y-70321123D01*
X93223865Y-70322328D01*
X93231548Y-70323999D01*
X95908669Y-70323999D01*
X95915490Y-70323629D01*
X95966352Y-70318105D01*
X95981604Y-70314479D01*
X96102054Y-70269324D01*
X96117649Y-70260786D01*
X96219724Y-70184285D01*
X96232285Y-70171724D01*
X96308786Y-70069649D01*
X96317324Y-70054054D01*
X96362478Y-69933606D01*
X96366105Y-69918351D01*
X96371631Y-69867486D01*
X96372000Y-69860672D01*
X96372000Y-66888115D01*
X96367525Y-66872876D01*
X96366135Y-66871671D01*
X96358452Y-66870000D01*
X93236115Y-66870000D01*
X93220876Y-66874475D01*
X93219671Y-66875865D01*
X93218000Y-66883548D01*
X93218000Y-70305884D01*
X92710000Y-70305884D01*
X92710000Y-66888115D01*
X92705525Y-66872876D01*
X92704135Y-66871671D01*
X92696452Y-66870000D01*
X89574116Y-66870000D01*
X89558877Y-66874475D01*
X89557672Y-66875865D01*
X89556001Y-66883548D01*
X89556001Y-69860669D01*
X73152500Y-69860669D01*
X73152500Y-68893821D01*
X73172502Y-68825700D01*
X73226158Y-68779207D01*
X73296432Y-68769103D01*
X73361012Y-68798597D01*
X73392601Y-68840370D01*
X73399708Y-68855541D01*
X73484244Y-68992149D01*
X73493280Y-69003550D01*
X73606979Y-69117051D01*
X73618390Y-69126063D01*
X73755154Y-69210365D01*
X73768332Y-69216509D01*
X73921240Y-69267227D01*
X73934606Y-69270093D01*
X74028101Y-69279672D01*
X74034516Y-69280000D01*
X74052885Y-69280000D01*
X74068124Y-69275525D01*
X74069329Y-69274135D01*
X74071000Y-69266452D01*
X74071000Y-66882116D01*
X74066525Y-66866877D01*
X74065135Y-66865672D01*
X74057452Y-66864001D01*
X74034567Y-66864001D01*
X74028048Y-66864338D01*
X73933330Y-66874166D01*
X73919936Y-66877058D01*
X73767135Y-66928036D01*
X73753957Y-66934210D01*
X73617351Y-67018744D01*
X73605950Y-67027780D01*
X73492449Y-67141479D01*
X73483437Y-67152890D01*
X73399137Y-67289651D01*
X73392695Y-67303466D01*
X73345778Y-67356751D01*
X73277501Y-67376212D01*
X73209541Y-67355670D01*
X73163475Y-67301648D01*
X73152500Y-67250216D01*
X73152500Y-62212605D01*
X75901381Y-62212605D01*
X75901421Y-62226705D01*
X75908691Y-62230000D01*
X76435885Y-62230000D01*
X76451124Y-62225525D01*
X76452329Y-62224135D01*
X76454000Y-62216452D01*
X76454000Y-61715576D01*
X76449656Y-61700781D01*
X76439225Y-61698937D01*
X76429641Y-61700688D01*
X76286216Y-61742357D01*
X76271780Y-61748604D01*
X76144501Y-61823876D01*
X76132074Y-61833516D01*
X76027516Y-61938074D01*
X76017876Y-61950501D01*
X75942604Y-62077780D01*
X75936357Y-62092216D01*
X75901381Y-62212605D01*
X73152500Y-62212605D01*
X73152500Y-56006000D01*
X73172502Y-55937879D01*
X73226158Y-55891386D01*
X73278500Y-55880000D01*
X74196500Y-55880000D01*
X74264621Y-55900002D01*
G37*
%TD.AperFunction*%
%TD*%
M02*
